<svg width="199" height="293" viewBox="0 0 199 293" fill="none" xmlns="http://www.w3.org/2000/svg">
<path d="M34.2394 126.314C37.3917 126.602 40.2344 127.352 42.1489 129.077C44.8821 130.489 46.6259 131.97 46.4816 133.581C47.3565 136.036 46.6756 137.819 46.1632 139.675L44.707 142.722C43.786 144.496 41.8825 145.676 38.9052 146.208C35.4001 146.789 31.8948 147.486 28.3965 145.492C24.4136 144.006 24.2241 141.899 23.8415 139.823C22.6661 137.693 21.879 135.129 22.3452 131.162C22.7583 129.349 23.2833 127.043 25.8537 125.99C28.4241 124.936 30.7289 125.483 34.2394 126.314Z" stroke="black" stroke-width="0.548375" stroke-linejoin="round"/>
<path d="M24.8598 129.553C21.9334 133.707 23.9385 135.536 25.1473 137.741C24.8184 141.479 24.9167 144.353 27.448 144.003C31.18 146.663 33.9017 145.235 36.8687 144.8C37.2943 144.125 37.3213 143.249 38.4955 142.951C38.4955 142.951 41.1089 137.345 41.4475 136.471C41.7861 135.596 42.0592 133.975 40.3001 132.22C40.3001 132.22 37.5785 129.376 35.8299 128.578C34.9982 128.199 34.0187 128.313 33.1279 128.108C31.3015 127.686 27.7254 126.549 27.7254 126.549C26.0119 126.17 24.9462 127.057 24.8598 129.553Z" stroke="black" stroke-width="0.548375"/>
<path d="M36.879 140.861C36.9907 140.787 35.0214 139.532 33.64 138.999C32.9337 138.726 32.5113 137.877 32.3318 137.142C31.9625 135.628 33.4288 133.707 32.9619 132.509C32.4949 131.312 31.5134 131.258 30.649 130.881C30.0704 130.629 29.7268 130.839 28.7964 130.49" stroke="black" stroke-width="0.548375" stroke-linecap="round"/>
<path d="M35.7462 131.127C34.5151 131.489 32.9515 131.796 32.8853 132.355" stroke="black" stroke-width="0.548375" stroke-linecap="round" stroke-linejoin="round"/>
<path d="M28.9326 137.596C29.4304 137.348 30.0711 137.048 30.8643 137.292C31.6575 137.537 32.0716 137.613 32.3328 136.91" stroke="black" stroke-width="0.548375" stroke-linecap="round"/>
<path d="M35.6529 137.15C34.4935 137.103 33.2259 137.799 32.2563 136.446" stroke="black" stroke-width="0.548375" stroke-linecap="round"/>
<path d="M25.824 115.267C24.7186 113.752 24.8631 111.547 25.6087 109.01C28.4536 102.494 33.5647 101.09 41.5269 106.117C44.0244 107.125 46.0044 109.064 47.3069 110.998C48.5881 112.901 49.7777 113.817 49.1443 117.182C47.6821 122.85 45.1563 127.297 37.9981 126.421C35.154 126.075 32.6423 126.82 29.0451 124.003C27.6526 121.698 24.9692 121.852 25.824 115.267Z" stroke="black" stroke-width="0.548375" stroke-linecap="round"/>
<path d="M29.09 106.857C32.0856 100.382 36.9872 105.53 41.749 109.825C42.7234 110.996 43.9606 111.732 44.3645 113.848C45.8322 117.58 42.1925 119.705 40.4807 122.257C38.7688 124.809 37.0013 126.081 33.9082 125.098C26.6748 122.431 26.3985 118.935 27.5233 115.272C25.239 109.85 26.7863 109.564 27.3878 108.011C27.955 107.698 28.5218 107.55 29.09 106.857Z" stroke="black" stroke-width="0.548375"/>
<path d="M40.59 109.899C39.8625 110.295 39.338 110.287 38.8125 110.281C37.4093 110.073 36.8196 110.819 36.6453 112.052C36.6266 112.827 36.8337 113.678 35.636 114.057C34.6039 114.998 35.1188 115.428 35.2447 115.987C35.2167 116.863 35.1894 117.452 35.1624 117.918C35.1388 121.064 36.0005 120.996 36.5418 122.092C36.8679 122.447 37.271 122.777 37.0019 123.329L37.6184 123.871" stroke="black" stroke-width="0.548375" stroke-linecap="round"/>
<path d="M35.8115 106.18C36.1063 106.824 36.3928 107.468 36.8878 108.113C37.4374 108.525 37.6696 109.409 37.8085 110.433" stroke="black" stroke-width="0.548375" stroke-linecap="round"/>
<path d="M30.3242 107.478C31.3638 107.522 32.4053 107.564 32.6389 108.41C33.9559 109.385 35.2769 110.362 36.7245 111.433" stroke="black" stroke-width="0.548375" stroke-linecap="round"/>
<path d="M28.375 114.501L31.3862 114.895C32.5188 115.384 33.7053 115.712 35.2478 114.982" stroke="black" stroke-width="0.548375" stroke-linecap="round"/>
<path d="M34.2974 123.94L35.0715 123.247C34.8572 121.265 35.2503 120.968 35.8492 121.241" stroke="black" stroke-width="0.548375" stroke-linecap="round"/>
<path d="M35.2441 116.296L36.8665 116.146C37.5861 116.642 38.3062 116.937 39.0263 117.232" stroke="black" stroke-width="0.548375" stroke-linecap="round"/>
<path d="M33.2444 83.6197C38.6746 78.9066 42.678 81.6288 46.6816 84.35C47.7627 85.6916 48.8204 87.0331 50.3011 88.3757C54.8356 92.7335 53.9827 95.691 51.3568 98.1875C49.7201 100.003 48.1527 101.785 47.3274 103.197C46.3815 104.171 45.5118 104.918 44.7731 105.276C41.2776 106.846 39.943 104.656 37.9808 103.559C30.9311 99.8433 28.4064 94.6674 30.2205 88.0915C30.4203 85.5562 31.6127 84.304 33.2444 83.6197Z" stroke="black" stroke-width="0.548375"/>
<path d="M34.079 89.3374C32.9385 84.0499 35.6908 84.6351 37.1842 83.3211C39.7788 82.6973 41.9521 81.1782 46.2956 84.2718C49.5306 88.7733 48.5634 91.3004 48.9722 94.474C49.1719 97.5041 48.2622 99.3457 47.0265 100.107C46.719 101.742 46.7916 103.306 44.0794 104.734C41.7713 106.792 40.1491 105.021 38.4439 103.715C35.8761 103.025 35.4636 101.337 35.5212 98.9957C30.2957 96.7232 33.2177 92.4316 34.079 89.3374Z" stroke="black" stroke-width="0.548375"/>
<path d="M44.2099 84.4209C43.6786 85.0446 42.9695 85.1302 42.8132 86.8888C43.0534 88.6916 42.0632 90.4912 41.0999 92.2908C40.1037 93.2603 40.4271 95.8881 40.1587 97.7722C41.1346 98.7023 42.1129 98.7127 43.0914 98.6294L44.9408 100.256" stroke="black" stroke-width="0.548375" stroke-linecap="round"/>
<path d="M35.0811 90.0352C35.7432 90.7528 36.2376 91.5816 38.0894 91.5105C39.1453 91.3754 40.2011 91.3072 41.2549 91.9822" stroke="black" stroke-width="0.548375" stroke-linecap="round"/>
<path d="M46.7421 90.6836C44.7186 91.0315 41.7277 90.8925 41.1777 91.982" stroke="black" stroke-width="0.548375" stroke-linecap="round"/>
<path d="M36.2173 98.6114C38.2779 99.5439 39.1508 98.5651 40.2354 97.9268" stroke="black" stroke-width="0.548375" stroke-linecap="round"/>
<path d="M37.9092 101.473L38.8435 98.6182" stroke="black" stroke-width="0.548375" stroke-linecap="round"/>
<path d="M44.1 67.3516C38.7392 68.1163 36.1967 70.8815 37.8197 76.6035C39.5291 78.7034 41.0831 80.9578 43.9848 81.8717C45.0129 81.8503 45.9157 81.9537 46.5323 82.3418C47.4225 82.5852 48.4424 82.5836 49.5443 82.4269C51.6195 81.3247 54.4099 82.2417 55.5788 78.5809C56.5438 75.6518 56.3791 73.0725 54.0535 71.1622C49.4573 67.3185 46.931 67.6417 44.1 67.3516Z" stroke="black" stroke-width="0.548375" stroke-linecap="round"/>
<path d="M45.4119 67.7412C44.7325 68.5294 44.1008 69.271 44.3543 70.1201C44.0585 71.1028 44.0593 71.3915 44.0112 71.7538C43.5911 72.5343 43.5596 72.735 43.5447 72.9111C43.5588 74.2651 43.7863 74.5656 44.0029 74.9205C44.6148 76.7124 44.0545 77.0902 43.6867 77.7002C43.3139 78.3043 42.7931 78.0054 42.6001 79.7055" stroke="black" stroke-width="0.548375" stroke-linecap="round"/>
<path d="M49.3962 80.0315C46.7926 79.1298 46.6272 77.7472 47.089 76.2408C46.8146 73.8169 47.8016 72.4074 48.4936 70.7607" stroke="black" stroke-width="0.548375" stroke-linecap="round"/>
<path d="M50.8849 71.8486C49.8032 71.9797 48.7218 72.0138 47.6392 72.5353" stroke="black" stroke-width="0.548375" stroke-linecap="round"/>
<path d="M45.8687 70.291C47.049 71.3043 47.4147 72.1116 47.7927 72.9221" stroke="black" stroke-width="0.548375" stroke-linecap="round"/>
<path d="M44.1445 79.786C44.6422 79.2784 45.5575 78.5217 47.0858 77.3994" stroke="black" stroke-width="0.548375" stroke-linecap="round"/>
<path d="M48.4325 52.3681C43.958 53.9263 43.6639 56.0763 43.6424 58.2648C43.4147 67.8911 51.5863 67.7282 53.1688 66.9882C55.6586 67.2965 57.3879 67.0101 58.7486 66.4355C61.2894 66.2406 62.5133 64.7217 62.9193 62.3809C63.2913 61.1243 63.4181 59.7444 62.789 57.984C62.3292 57.0008 62.6419 56.0583 59.8187 54.9507C56.8418 54.6226 55.8994 53.8676 54.6708 53.0463C52.9035 51.1285 50.7052 51.5469 48.4325 52.3681Z" stroke="black" stroke-width="0.548375" stroke-linecap="round"/>
<path d="M52.687 52.3789C52.7071 52.8517 53.0506 53.3253 51.8797 53.795C49.8519 55.4393 49.9891 56.6564 50.4509 57.8095C51.3898 59.5933 51.055 60.438 50.1121 60.8342C47.1877 63.6707 47.8538 64.2527 47.0737 65.7427" stroke="black" stroke-width="0.548375" stroke-linecap="round"/>
<path d="M49.063 64.283C51.796 63.8955 53.9963 62.8149 54.6061 59.6647C54.9285 57.8407 53.8726 56.7996 52.4412 55.9717" stroke="black" stroke-width="0.548375" stroke-linecap="round"/>
<path d="M58.9627 56.8867C55.391 57.2449 54.242 58.1615 54.7017 59.2865C54.6921 62.2545 55.6334 61.5502 56.3006 62.5053" stroke="black" stroke-width="0.548375" stroke-linecap="round"/>
<path d="M53.0337 64.4823C53.5406 63.8218 53.3708 63.1595 53.1334 62.4971" stroke="black" stroke-width="0.548375" stroke-linecap="round"/>
<path d="M55.9867 56.0283C54.7399 57.1749 54.614 57.7646 54.6099 58.2939" stroke="black" stroke-width="0.548375" stroke-linecap="round"/>
<path d="M60.1005 55.7549C60.976 57.7083 60.1045 59.3084 60.2766 60.7191C60.4396 62.6855 59.8563 64.3594 57.7587 65.4399C56.4689 66.1663 54.9037 66.3144 53.5015 66.4215" stroke="black" stroke-width="0.548375" stroke-linecap="round"/>
<path d="M48.2607 81.8191C50.3072 80.4269 53.0403 81.5927 53.9452 77.3903C54.1052 76.0503 55.0223 74.4688 52.9209 71.3838" stroke="black" stroke-width="0.548375" stroke-linecap="round"/>
<path d="M56.4681 52.8143C53.5044 51.8256 52.1165 50.0166 51.8015 47.6493C51.4353 45.3346 51.8397 43.0769 53.2374 40.8929C54.4597 37.4915 55.6725 37.6799 56.8865 37.4514C57.9694 37.588 58.9536 37.5259 59.9121 37.4121C62.8094 37.2837 63.8887 38.5976 64.5869 39.4571C67.0317 42.7308 66.7618 44.6383 67.3563 46.9809C67.6622 49.5675 67.5273 51.7791 66.2061 52.9816C62.1861 55.9883 61.5028 54.515 59.8204 54.3831C56.6876 53.0637 57.4933 53.3008 56.4681 52.8143Z" stroke="black" stroke-width="0.548375" stroke-linecap="round"/>
<path d="M54.6328 49.4534C54.7737 46.2516 55.0428 43.214 56.5439 41.7528C58.0293 40.1967 59.9405 39.0686 62.5558 38.6484" stroke="black" stroke-width="0.548375" stroke-linecap="round"/>
<path d="M63.7777 41.4883C65.5504 48.3841 66.3189 50.0116 61.6865 45.7375" stroke="black" stroke-width="0.548375" stroke-linecap="round"/>
<path d="M59.6477 48.1426C63.5505 52.8658 60.9618 52.1673 56.7588 50.1205" stroke="black" stroke-width="0.548375" stroke-linecap="round"/>
<path d="M65.6898 33.3616C73.0042 28.5599 71.5057 29.9614 74.6362 28.894C75.7274 28.504 76.6332 28.4456 77.0937 29.184L78.7911 30.8903C79.9446 32.34 79.8678 32.6478 80.0143 33.1627C80.5576 37.6453 79.9297 37.589 79.8086 39.4969C78.9722 41.1207 77.962 42.57 76.253 43.3167C75.1984 44.0607 73.7379 43.9877 72.1864 43.7315L69.6352 43.1103C68.635 43.2607 67.7732 42.5936 66.8962 42.0158C65.0455 40.7167 64.5672 38.8728 63.9309 37.0916C63.8028 35.9395 64.1306 34.9189 64.8844 34.0213L65.6898 33.3616Z" stroke="black" stroke-width="0.548375" stroke-linecap="round"/>
<path d="M67.7489 41.4989C66.7671 39.9722 65.1955 38.7385 67.102 35.7771C68.8509 34.4124 70.2195 33.9912 71.7416 33.1892C73.0519 32.5296 74.3521 31.8898 75.2903 31.9694C79.1975 31.5943 77.5889 32.5277 78.6445 32.8291" stroke="black" stroke-width="0.548375" stroke-linecap="round"/>
<path d="M75.9448 34.6182C76.2793 36.3677 76.5909 38.1626 77.5415 38.6879" stroke="black" stroke-width="0.548375" stroke-linecap="round"/>
<path d="M73.7039 41.8927C73.8423 40.4028 71.67 39.7724 69.8823 38.999" stroke="black" stroke-width="0.548375" stroke-linecap="round"/>
<path d="M79.9745 30.4209C80.0103 30.7504 81.934 34.1425 82.419 35.6747C83.0748 37.329 84.1191 38.8244 86.8997 39.6102C89.1702 39.3314 91.473 39.2718 93.3843 36.5544L98.083 29.4283L98.9399 27.1614C99.5586 25.5246 98.2187 24.0195 96.9643 23.3743L93.563 22.4672C91.5764 22.3399 90.2578 21.7577 86.3762 22.9212L82.734 23.7153C81.409 24.2996 79.6397 24.0709 79.6053 27.0163C79.6749 28.1421 79.2339 29.1815 79.9745 30.4209Z" stroke="black" stroke-width="0.548375" stroke-linecap="round"/>
<path d="M83.4611 34.7794L82.6284 27.8279C83.0801 27.8291 82.1202 26.4246 83.8156 25.7983C90.0066 23.3873 93.5845 25.1546 94.5943 25.6846C95.6041 26.2147 96.4807 27.6644 96.287 29.1873C96.0933 30.7103 95.6693 31.0761 95.3819 31.8323" stroke="black" stroke-width="0.548375" stroke-linecap="round"/>
<path d="M26.0038 168.792C25.7106 166.739 24.3981 166.542 25.4542 162.03C26.0044 158.811 27.5824 156.152 31.1466 154.576C33.3042 154.269 35.2706 152.73 37.7649 154.593C38.4919 155.229 39.0336 155.567 39.5108 155.827C40.5023 156.859 42.4295 156.92 43.3741 160.848C43.3733 162.345 43.0083 162.924 43.6912 166.144C43.9077 167.384 44.5376 168.162 43.8218 170.446C43.0503 171.502 43.12 172.621 40.7408 173.558C40.0879 174.161 34.8998 174.73 33.2213 174.673C31.5428 174.615 31.6264 175.189 29.0662 172.771C28.0509 171.489 27.1287 170.969 26.0038 168.792Z" stroke="black" stroke-width="0.548375"/>
<path d="M37.9023 156.201C35.9834 153.341 33.8418 154.612 31.6611 156.61C30.4215 158.099 30.0384 159.668 30.1833 161.286C30.2367 162.258 30.6595 162.915 31.5967 163.134C30.9782 163.479 30.731 164.124 30.741 164.975L31.579 169.894C32.378 171.921 33.0126 171.91 33.6994 172.547C34.0659 172.732 34.4371 172.913 34.9274 172.975C35.6056 172.747 36.2836 172.607 36.9662 170.664C36.389 170.479 38.7865 169.557 37.0212 167.733C36.4526 167.112 38.375 165.096 37.2688 163.432C36.7027 161.601 36.1635 160.02 35.7195 159.315C36.9147 159.121 36.558 158.034 36.9537 157.38" stroke="black" stroke-width="0.548375"/>
<path d="M34.3022 158.934L35.7195 159.316" stroke="black" stroke-width="0.548375"/>
<path d="M39.8699 163.062C39.1188 163.4 38.4688 163.975 37.3633 163.48" stroke="black" stroke-width="0.548375"/>
<path d="M35.2686 169.101C36.1517 168.965 36.8127 168.516 37.0692 167.498" stroke="black" stroke-width="0.548375"/>
<path d="M33.6294 163.092C34.8022 162.866 36.0935 162.171 37.0337 162.865" stroke="black" stroke-width="0.548375"/>
<path d="M37.3398 172.367C38.0868 172.344 38.7927 172.407 39.6569 172.137C40.8919 170.758 41.3348 170.756 42.1203 170.158C42.2681 170.113 43.8246 168.492 42.6983 166.047C42.0765 164.795 41.9256 164.363 42.1851 163.445C41.5746 161.306 41.9056 160.824 41.7699 159.521" stroke="black" stroke-width="0.548375"/>
<path d="M32.606 174.955C30.8434 175.774 29.0444 176.295 27.3977 178.061C26.0342 179.135 25.0197 181.068 24.7797 184.909C24.6653 187.61 24.0108 190.241 25.7981 193.185C27.3326 194.478 26.3926 194.919 30.5624 197.121C32.7106 198.021 34.2526 200.005 37.5545 198.841C39.1517 198.389 39.6912 198.567 42.4274 197.436C43.5866 197.172 44.5469 196.507 45.0811 194.984C45.6565 193.999 46.1372 192.632 46.4634 190.639C46.3514 188.917 46.0919 188.209 45.8575 187.328C45.4827 185.013 45.6233 184.049 45.8679 183.357C45.8933 182.191 45.6609 181.024 44.9316 179.856C44.5486 178.594 44.2965 177.4 42.058 176.02C40.0197 174.487 38.6968 173.335 32.606 174.955Z" stroke="black" stroke-width="0.548375"/>
<path d="M36.4715 197.232C37.2681 196.851 37.277 196.188 39.6883 196.389C40.2716 196.314 40.8546 196.302 41.4398 195.495L42.7183 194.695L43.8081 193.752C44.6584 192.828 44.8556 191.83 44.5722 190.776C44.4228 189.608 44.184 188.199 44.3904 187.987C44.5027 187.262 44.2791 186.087 44.0204 184.866C44.1391 183.289 45.2577 183.508 43.7991 179.098C43.7042 178.157 43.2071 177.676 42.2901 177.675C41.5438 177.528 41.3432 177.185 40.4024 176.441C39.7337 176.046 39.3879 175.651 37.9 175.253C36.765 175.397 35.6314 175.019 34.4944 175.953L32.5042 177.744C30.8996 179.074 30.7278 179.812 30.606 180.529C30.1601 181.599 30.3343 182.671 30.503 183.743C30.5408 184.656 30.8553 185.413 31.774 185.826C31.3327 186.352 30.8376 186.604 30.6328 188.329C30.1618 191.323 30.886 192.091 31.3762 193.294C32.3338 194.686 33.2923 195.734 34.2505 196.895" stroke="black" stroke-width="0.548375"/>
<path d="M39.1204 178.376C38.2584 178.964 37.5825 179.879 37.2217 181.349C37.3767 182.499 37.643 183.428 37.923 184.329C38.1587 185.573 38.8086 185.503 38.4792 188.538C37.8886 189.111 37.7426 189.537 37.9085 189.86C38.9763 192.136 38.604 194.145 36.8999 195.909" stroke="black" stroke-width="0.548375"/>
<path d="M40.7368 193.177C40.2119 192.037 39.6141 190.933 38.097 190.286C37.8876 189.641 37.1755 189.384 35.8296 189.618" stroke="black" stroke-width="0.548375"/>
<path d="M33.665 185.595C35.8115 185.416 37.6971 185.389 38.3439 186.08" stroke="black" stroke-width="0.548375"/>
<path d="M43.7311 186.897C42.0518 186.431 40.892 185.512 38.2974 185.843" stroke="black" stroke-width="0.548375"/>
<path d="M43.1219 184.815L40.8022 186.038" stroke="black" stroke-width="0.548375"/>
<path d="M33.8682 180.395C35.4083 180.698 36.4849 181 37.2695 181.302" stroke="black" stroke-width="0.548375"/>
<path d="M35.9082 177.611C36.5193 178.811 37.2843 180.01 37.1752 181.207" stroke="black" stroke-width="0.548375"/>
<path d="M43.8897 198.574C44.9937 198.231 46.2072 198.897 47.4324 199.671L49.082 201.566C50.2443 202.672 50.7316 203.777 50.6334 204.88C50.5277 206.802 51.0394 208.726 52.3201 210.651C53.1394 213.015 53.6742 215.298 52.2561 217.033C51.3901 218.609 50.3376 220.109 48.227 221.183C46.0202 222.093 44.0746 223.332 41.413 223.67C39.6734 223.805 38.2606 224.378 35.4581 223.088L31.6356 220.525C30.992 220.054 30.379 219.79 29.376 216.879C29.0478 214.174 27.7881 211.583 29.303 208.653L31.7285 203.081C32.8754 201.649 33.6367 200.075 36.0881 199.121C37.5169 198.66 38.4761 197.942 41.1961 198.189L43.8897 198.574Z" stroke="black" stroke-width="0.548375"/>
<path d="M47.759 201.231C48.342 202.446 49.2499 203.662 49.2622 204.875C49.5568 207.324 50.3496 209.03 51.1378 210.742C51.5986 211.936 52.3131 212.822 51.6931 215.329C51.253 216.902 50.8433 218.489 48.5629 219.198L44.6346 220.936C43.5155 221.463 41.9964 221.386 40.3794 221.162C38.8051 220.596 37.2292 220.62 35.6592 218.407C35.3213 217.746 35.1229 216.808 35.2896 215.145" stroke="black" stroke-width="0.548375"/>
<path d="M34.5366 213.914C33.7791 213.923 33.191 213.667 33.3117 212.304C33.4872 209.715 33.1317 207.071 34.4664 204.601C34.4641 203.163 34.3747 201.666 35.4687 200.963C36.9168 199.907 37.6098 198.092 40.6748 198.661C42.188 198.996 43.1939 199.013 43.7002 198.716" stroke="black" stroke-width="0.548375"/>
<path d="M43.5983 201.505C43.0359 202.925 42.6905 204.263 41.3174 205.99C41.876 207.839 42.675 208.501 43.4838 209.116C43.6854 209.638 44.0118 209.382 43.8541 212.142C44.0519 214.79 45.7776 215.701 46.7712 217.444" stroke="black" stroke-width="0.548375"/>
<path d="M37.7998 213.308C39.7878 212.34 41.7767 211.056 43.761 211.527" stroke="black" stroke-width="0.548375"/>
<path d="M48.7348 207.806C47.2752 210.057 45.5017 209.906 43.8115 210.393" stroke="black" stroke-width="0.548375"/>
<path d="M45.8118 204.725C44.6383 206.047 43.4744 207.373 43.5313 209.068" stroke="black" stroke-width="0.548375"/>
<path d="M35.5088 203.705C36.8577 205.3 38.7046 206.202 41.3174 206.037" stroke="black" stroke-width="0.548375"/>
<path d="M52.2881 222.942C56.929 225.249 56.8613 226.489 57.0016 228.249C56.6503 230.357 56.7441 231.141 56.7549 232.172C56.8177 234.339 55.4679 234.909 54.6175 236.043C51.8903 238.772 50.4374 237.89 48.5131 238.343C46.7436 238.071 45.6654 237.8 44.6388 237.53C41.7531 236.829 42.0053 235.745 40.9113 234.825C39.5085 232.943 39.3852 230.538 40.126 227.779C40.7336 226.138 41.9664 224.911 43.2567 223.722L46.4283 222.123C48.8631 221.116 51.6525 222.498 52.2881 222.942Z" stroke="black" stroke-width="0.548375"/>
<path d="M47.9389 222.789C46.9282 222.992 45.7042 223.143 45.2848 225.382C45.2933 226.356 44.9807 227.115 44.6165 227.839C44.1766 230.174 45.3257 231.72 46.3513 233.327C47.1475 234.671 48.1329 234.805 49.0884 235.131C50.1305 235.681 50.9123 235.312 51.4548 234.097C51.7866 233.403 51.8552 232.379 52.6415 232.256C52.9966 231.63 53.0436 231.105 53.024 230.603C52.5769 229.763 52.9393 228.602 53.0793 227.53C51.2445 227.438 50.7935 225.969 50.5824 224.261C49.7287 223.938 48.9094 223.825 47.9389 222.789Z" stroke="black" stroke-width="0.548375"/>
<path d="M50.1337 233.101C51.222 232.115 51.2022 230.387 51.1854 228.66C50.5166 225.765 49.3037 224.38 47.3657 225.01" stroke="black" stroke-width="0.548375"/>
<path d="M52.2188 231.262C52.1334 229.777 51.681 229.111 51.0908 228.754" stroke="black" stroke-width="0.548375"/>
<path d="M49.4956 224.164L49.634 225.488" stroke="black" stroke-width="0.548375"/>
<path d="M51.4887 239.344C49.6484 241.882 49.2067 243.702 49.3933 245.201C49.9439 247.807 50.2288 250.605 52.9693 251.639C57.3429 253.096 58.2843 251.887 60.0612 251.327C62.0945 250.338 63.6934 249.1 64.8456 247.605C65.7317 246.992 65.6655 246.378 65.7014 245.763C65.5645 244.622 65.8101 243.851 65.8979 242.927C66.0317 241.136 65.2583 239.885 64.8223 238.433C63.5328 237.383 62.588 235.942 60.48 235.822L56.8402 235.718C54.5981 235.6 53.0687 237.545 51.4887 239.344Z" stroke="black" stroke-width="0.548375"/>
<path d="M52.4326 239.867C53.0829 240.782 53.89 241.858 54.3169 242.425C54.5462 242.83 54.3527 243.115 54.408 243.749C54.1345 245.395 54.645 245.288 55.1121 245.642C55.5888 246.011 56.078 246.356 56.4323 246.969C56.8389 248.198 57.4164 247.925 57.9421 248.107L60.1157 248.491C61.8401 249.01 62.1113 248.215 63.0475 248.168" stroke="black" stroke-width="0.548375"/>
<path d="M62.5347 245.424C62.648 246.052 62.2407 246.752 63.1444 247.269" stroke="black" stroke-width="0.548375"/>
<path d="M57.853 246.121L61.8839 241.31C62.7309 240.286 63.3789 240.039 63.442 242.07" stroke="black" stroke-width="0.548375"/>
<path d="M57.2024 241.817C57.5973 240.605 58.7081 239.394 60.6157 238.186C59.8769 238.444 59.14 238.707 58.1573 238.227C56.9924 237.656 56.4373 238.313 55.7451 238.693" stroke="black" stroke-width="0.548375"/>
<path d="M66.9238 248.177C70.0872 247.733 72.8559 247.718 73.3953 250.132L74.9902 254.864C76.1368 258.47 74.9329 257.74 74.7433 258.882L72.3723 261.665C71.4662 262.582 70.4899 263.45 68.3492 263.498C65.2106 263.382 62.0348 263.332 61.365 258.799L61.0952 253.504C61.7461 250.974 62.4585 248.479 66.9238 248.177Z" stroke="black" stroke-width="0.548375"/>
<path d="M63.0366 252.422C63.9669 255.369 64.5494 258.748 67.4151 259.288C69.6437 260.304 71.9223 261.941 73.7989 258.596" stroke="black" stroke-width="0.548375"/>
<path d="M72.763 256.986C71.6301 257.66 70.4523 258.45 70.3059 256.554C70.1004 254.578 70.9546 253.667 71.3099 252.255" stroke="black" stroke-width="0.548375"/>
<path d="M65.022 252.38C65.287 251.201 66.1548 250.302 68.054 249.883" stroke="black" stroke-width="0.548375"/>
<path d="M66.0078 255.03C66.6523 255.644 67.2997 255.144 67.9507 253.238C68.2894 251.789 68.8896 251.398 69.4696 250.926" stroke="black" stroke-width="0.548375"/>
<path d="M78.8612 256.907C77.6507 258.669 74.2942 260.425 78.0909 262.2" stroke="black" stroke-width="0.548375"/>
<path d="M81.6929 258.759L82.5332 262.827C83.0796 264.785 83.6332 263.978 84.1877 262.831" stroke="black" stroke-width="0.548375"/>
<path d="M74.5508 260.3C74.6372 261.736 74.5034 263.312 76.2911 263.661C77.8114 264.185 79.7185 264.71 80.3053 265.231C82.8217 266.621 83.0564 265.894 84.0854 265.903" stroke="black" stroke-width="0.548375"/>
<path d="M83.7811 255.738C82.8827 253.229 80.6889 253.201 79.199 254.403L77.0646 257.092L74.5528 259.496C74.1876 260.621 73.205 260.552 74.3504 264.601C75.0391 266.791 76.4244 267.77 78.1228 268.204C80.3011 268.829 82.166 268.427 83.845 267.415C84.9896 266.236 86.8013 265.679 86.3149 262.978C85.8294 261.763 85.8063 261.479 84.7649 259.145C84.4369 258.014 84.1075 257.457 83.7811 255.738Z" stroke="black" stroke-width="0.548375"/>
<path d="M89.255 259.535C88.5426 261.1 88.0378 262.832 86.738 263.924C86.1548 264.509 85.6528 265.257 86.301 268.32C86.9738 269.596 88.1257 270.343 89.9357 270.362C91.3956 270.088 92.6523 269.696 94.948 269.902C96.0532 269.635 97.0607 269.994 98.4034 268.21C98.8468 267.367 99.5375 266.831 98.4143 264.05L94.9753 259.455C94.0423 258.76 93.9402 257.69 91.7657 257.556C90.0652 257.607 89.7464 258.632 89.255 259.535Z" stroke="black" stroke-width="0.548375"/>
<path d="M87.0112 267.896C87.9497 268.055 88.8383 268.36 89.8945 268.046L91.596 268.192C92.7936 268.369 93.8231 268.208 94.9053 268.153C96.5458 268.067 98.2359 268.005 97.7922 266.932" stroke="black" stroke-width="0.548375"/>
<path d="M33.0219 130.178C33.3014 130.869 33.4503 131.534 32.9585 132.069" stroke="black" stroke-width="0.548375" stroke-linecap="round"/>
<path d="M164.655 126.341C161.503 126.629 158.66 127.379 156.746 129.103C154.013 130.516 152.269 131.997 152.413 133.607C151.538 136.062 152.219 137.845 152.731 139.701L154.188 142.749C155.109 144.522 157.012 145.702 159.989 146.235C163.494 146.816 167 147.513 170.498 145.518C174.481 144.033 174.671 141.925 175.053 139.849C176.229 137.719 177.016 135.155 176.549 131.188C176.136 129.375 175.611 127.07 173.041 126.016C170.47 124.963 168.166 125.509 164.655 126.341Z" stroke="black" stroke-width="0.548375" stroke-linejoin="round"/>
<path d="M174.035 129.579C176.962 133.732 174.957 135.562 173.748 137.767C174.077 141.504 173.978 144.378 171.447 144.029C167.715 146.688 164.993 145.261 162.026 144.826C161.601 144.151 161.574 143.275 160.399 142.976C160.399 142.976 157.786 137.371 157.447 136.496C157.109 135.622 156.836 134.001 158.595 132.245C158.595 132.245 161.316 129.401 163.065 128.603C163.897 128.224 164.876 128.338 165.767 128.133C167.593 127.712 171.17 126.574 171.17 126.574C172.883 126.195 173.949 127.083 174.035 129.579Z" stroke="black" stroke-width="0.548375"/>
<path d="M162.016 140.887C161.904 140.813 163.873 139.559 165.255 139.025C165.961 138.752 166.384 137.904 166.563 137.168C166.932 135.654 165.466 133.733 165.933 132.536C166.4 131.338 167.381 131.284 168.246 130.908C168.824 130.656 169.168 130.866 170.098 130.517" stroke="black" stroke-width="0.548375" stroke-linecap="round"/>
<path d="M163.149 131.152C164.38 131.515 165.944 131.821 166.01 132.381" stroke="black" stroke-width="0.548375" stroke-linecap="round" stroke-linejoin="round"/>
<path d="M169.963 137.623C169.465 137.375 168.824 137.075 168.031 137.319C167.238 137.563 166.824 137.639 166.562 136.937" stroke="black" stroke-width="0.548375" stroke-linecap="round"/>
<path d="M163.242 137.177C164.401 137.129 165.669 137.825 166.638 136.473" stroke="black" stroke-width="0.548375" stroke-linecap="round"/>
<path d="M173.071 115.293C174.176 113.778 174.032 111.573 173.286 109.036C170.441 102.52 165.33 101.115 157.368 106.143C154.871 107.151 152.891 109.089 151.588 111.024C150.307 112.926 149.117 113.842 149.751 117.207C151.213 122.876 153.739 127.322 160.897 126.446C163.741 126.1 166.253 126.845 169.85 124.029C171.242 121.724 173.926 121.877 173.071 115.293Z" stroke="black" stroke-width="0.548375" stroke-linecap="round"/>
<path d="M169.805 106.883C166.809 100.407 161.908 105.555 157.146 109.851C156.172 111.022 154.934 111.757 154.531 113.874C153.063 117.606 156.703 119.731 158.414 122.282C160.126 124.834 161.894 126.107 164.987 125.123C172.22 122.457 172.497 118.961 171.372 115.297C173.656 109.875 172.109 109.59 171.507 108.037C170.94 107.724 170.373 107.576 169.805 106.883Z" stroke="black" stroke-width="0.548375"/>
<path d="M158.305 109.925C159.032 110.32 159.557 110.312 160.082 110.306C161.485 110.098 162.075 110.844 162.249 112.077C162.268 112.852 162.061 113.704 163.259 114.083C164.291 115.024 163.776 115.454 163.65 116.012C163.678 116.889 163.705 117.477 163.732 117.943C163.756 121.089 162.894 121.022 162.353 122.118C162.027 122.473 161.624 122.803 161.893 123.354L161.276 123.897" stroke="black" stroke-width="0.548375" stroke-linecap="round"/>
<path d="M163.083 106.205C162.789 106.849 162.502 107.494 162.007 108.139C161.458 108.55 161.225 109.435 161.086 110.458" stroke="black" stroke-width="0.548375" stroke-linecap="round"/>
<path d="M168.571 107.504C167.531 107.548 166.49 107.591 166.256 108.437C164.939 109.411 163.618 110.389 162.17 111.46" stroke="black" stroke-width="0.548375" stroke-linecap="round"/>
<path d="M170.52 114.527L167.509 114.921C166.376 115.41 165.19 115.739 163.647 115.009" stroke="black" stroke-width="0.548375" stroke-linecap="round"/>
<path d="M164.598 123.965L163.824 123.272C164.038 121.29 163.645 120.993 163.046 121.266" stroke="black" stroke-width="0.548375" stroke-linecap="round"/>
<path d="M163.651 116.322L162.028 116.172C161.309 116.668 160.589 116.964 159.869 117.259" stroke="black" stroke-width="0.548375" stroke-linecap="round"/>
<path d="M165.651 83.646C160.22 78.9329 156.217 81.6552 152.213 84.3763C151.132 85.7179 150.075 87.0595 148.594 88.4021C144.059 92.7599 144.912 95.7173 147.538 98.2139C149.175 100.03 150.742 101.811 151.568 103.224C152.514 104.198 153.383 104.945 154.122 105.302C157.617 106.872 158.952 104.683 160.914 103.585C167.964 99.8697 170.489 94.6938 168.675 88.1178C168.475 85.5826 167.282 84.3304 165.651 83.646Z" stroke="black" stroke-width="0.548375"/>
<path d="M164.816 89.3638C165.956 84.0763 163.204 84.6614 161.711 83.3475C159.116 82.7236 156.943 81.2045 152.599 84.2981C149.364 88.7996 150.331 91.3267 149.923 94.5003C149.723 97.5304 150.633 99.372 151.868 100.133C152.176 101.768 152.103 103.332 154.815 104.76C157.123 106.818 158.746 105.048 160.451 103.741C163.019 103.051 163.431 101.364 163.374 99.0221C168.599 96.7495 165.677 92.4579 164.816 89.3638Z" stroke="black" stroke-width="0.548375"/>
<path d="M154.685 84.4463C155.216 85.07 155.925 85.1556 156.082 86.9142C155.842 88.717 156.832 90.5166 157.795 92.3162C158.791 93.2857 158.468 95.9135 158.736 97.7976C157.76 98.7277 156.782 98.7381 155.804 98.6548L153.954 100.282" stroke="black" stroke-width="0.548375" stroke-linecap="round"/>
<path d="M163.814 90.0615C163.152 90.7791 162.657 91.6079 160.806 91.5369C159.75 91.4018 158.694 91.3336 157.64 92.0086" stroke="black" stroke-width="0.548375" stroke-linecap="round"/>
<path d="M152.153 90.709C154.176 91.0569 157.167 90.9179 157.717 92.0074" stroke="black" stroke-width="0.548375" stroke-linecap="round"/>
<path d="M162.678 98.6368C160.617 99.5693 159.744 98.5905 158.66 97.9521" stroke="black" stroke-width="0.548375" stroke-linecap="round"/>
<path d="M160.986 101.5L160.052 98.6445" stroke="black" stroke-width="0.548375" stroke-linecap="round"/>
<path d="M154.795 67.377C160.156 68.1417 162.698 70.9069 161.075 76.6289C159.366 78.7288 157.812 80.9832 154.91 81.8971C153.882 81.8757 152.979 81.9791 152.363 82.3671C151.473 82.6106 150.453 82.609 149.351 82.4523C147.276 81.3501 144.485 82.2671 143.316 78.6063C142.351 75.6772 142.516 73.0978 144.842 71.1876C149.438 67.3438 151.964 67.6671 154.795 67.377Z" stroke="black" stroke-width="0.548375" stroke-linecap="round"/>
<path d="M153.483 67.7666C154.162 68.5548 154.794 69.2964 154.54 70.1455C154.836 71.1282 154.836 71.4169 154.884 71.7792C155.304 72.5597 155.335 72.7604 155.35 72.9365C155.336 74.2904 155.109 74.591 154.892 74.9459C154.28 76.7378 154.84 77.1156 155.208 77.7256C155.581 78.3297 156.102 78.0308 156.295 79.7309" stroke="black" stroke-width="0.548375" stroke-linecap="round"/>
<path d="M149.499 80.0578C152.102 79.1562 152.267 77.7736 151.806 76.2672C152.08 73.8433 151.093 72.4338 150.401 70.7871" stroke="black" stroke-width="0.548375" stroke-linecap="round"/>
<path d="M148.01 71.875C149.091 72.0061 150.173 72.0401 151.255 72.5616" stroke="black" stroke-width="0.548375" stroke-linecap="round"/>
<path d="M153.026 70.3164C151.846 71.3297 151.48 72.137 151.102 72.9475" stroke="black" stroke-width="0.548375" stroke-linecap="round"/>
<path d="M154.75 79.8124C154.253 79.3048 153.337 78.5481 151.809 77.4258" stroke="black" stroke-width="0.548375" stroke-linecap="round"/>
<path d="M150.462 52.3945C154.937 53.9527 155.231 56.1027 155.252 58.2912C155.48 67.9175 147.308 67.7546 145.726 67.0145C143.236 67.3229 141.507 67.0364 140.146 66.4619C137.605 66.2669 136.381 64.7481 135.975 62.4072C135.603 61.1507 135.477 59.7707 136.106 58.0104C136.565 57.0272 136.253 56.0847 139.076 54.9771C142.053 54.649 142.995 53.8939 144.224 53.0727C145.991 51.1549 148.189 51.5733 150.462 52.3945Z" stroke="black" stroke-width="0.548375" stroke-linecap="round"/>
<path d="M146.208 52.4053C146.188 52.8781 145.844 53.3517 147.015 53.8214C149.043 55.4656 148.906 56.6828 148.444 57.8359C147.505 59.6197 147.84 60.4643 148.783 60.8606C151.707 63.6971 151.041 64.279 151.821 65.7691" stroke="black" stroke-width="0.548375" stroke-linecap="round"/>
<path d="M149.832 64.3084C147.099 63.9209 144.899 62.8403 144.289 59.6901C143.966 57.8661 145.022 56.825 146.454 55.9971" stroke="black" stroke-width="0.548375" stroke-linecap="round"/>
<path d="M139.932 56.9131C143.504 57.2713 144.653 58.1879 144.193 59.3129C144.203 62.2809 143.261 61.5766 142.594 62.5317" stroke="black" stroke-width="0.548375" stroke-linecap="round"/>
<path d="M145.861 64.5087C145.354 63.8482 145.524 63.1859 145.762 62.5234" stroke="black" stroke-width="0.548375" stroke-linecap="round"/>
<path d="M142.908 56.0537C144.155 57.2003 144.281 57.79 144.285 58.3193" stroke="black" stroke-width="0.548375" stroke-linecap="round"/>
<path d="M138.795 55.7812C137.919 57.7346 138.791 59.3348 138.619 60.7455C138.456 62.7119 139.039 64.3858 141.137 65.4663C142.427 66.1926 143.992 66.3408 145.394 66.4479" stroke="black" stroke-width="0.548375" stroke-linecap="round"/>
<path d="M150.634 81.8455C148.588 80.4533 145.855 81.6191 144.95 77.4166C144.79 76.0767 143.873 74.4951 145.974 71.4102" stroke="black" stroke-width="0.548375" stroke-linecap="round"/>
<path d="M142.427 52.8407C145.391 51.8519 146.779 50.043 147.094 47.6756C147.46 45.3609 147.055 43.1033 145.658 40.9192C144.435 37.5179 143.223 37.7062 142.009 37.4778C140.926 37.6144 139.941 37.5523 138.983 37.4384C136.086 37.3101 135.006 38.624 134.308 39.4834C131.863 42.7572 132.133 44.6647 131.539 47.0072C131.233 49.5938 131.368 51.8055 132.689 53.008C136.709 56.0147 137.392 54.5414 139.075 54.4095C142.208 53.09 141.402 53.3272 142.427 52.8407Z" stroke="black" stroke-width="0.548375" stroke-linecap="round"/>
<path d="M144.262 49.4798C144.121 46.278 143.852 43.2403 142.351 41.7791C140.865 40.223 138.954 39.095 136.339 38.6748" stroke="black" stroke-width="0.548375" stroke-linecap="round"/>
<path d="M135.117 41.5137C133.345 48.4095 132.576 50.037 137.209 45.7628" stroke="black" stroke-width="0.548375" stroke-linecap="round"/>
<path d="M139.247 48.1689C135.345 52.8922 137.933 52.1937 142.136 50.1469" stroke="black" stroke-width="0.548375" stroke-linecap="round"/>
<path d="M133.205 33.3879C125.89 28.5863 127.389 29.9878 124.258 28.9203C123.167 28.5303 122.261 28.472 121.801 29.2104L120.103 30.9167C118.95 32.3664 119.027 32.6741 118.88 33.1891C118.337 37.6716 118.965 37.6154 119.086 39.5232C119.922 41.1471 120.933 42.5963 122.641 43.3431C123.696 44.0871 125.157 44.0141 126.708 43.7579L129.259 43.1367C130.26 43.2871 131.121 42.62 131.998 42.0422C133.849 40.7431 134.327 38.8992 134.964 37.118C135.092 35.9659 134.764 34.9453 134.01 34.0477L133.205 33.3879Z" stroke="black" stroke-width="0.548375" stroke-linecap="round"/>
<path d="M131.146 41.5243C132.128 39.9976 133.7 38.7639 131.793 35.8025C130.044 34.4378 128.676 34.0166 127.153 33.2146C125.843 32.555 124.543 31.9152 123.605 31.9948C119.698 31.6197 121.306 32.5531 120.25 32.8545" stroke="black" stroke-width="0.548375" stroke-linecap="round"/>
<path d="M122.95 34.6436C122.615 36.3931 122.304 38.188 121.353 38.7133" stroke="black" stroke-width="0.548375" stroke-linecap="round"/>
<path d="M125.191 41.9181C125.052 40.4282 127.225 39.7978 129.012 39.0244" stroke="black" stroke-width="0.548375" stroke-linecap="round"/>
<path d="M118.921 30.4473C118.885 30.7767 116.961 34.1689 116.476 35.7011C115.82 37.3553 114.776 38.8508 111.995 39.6366C109.725 39.3578 107.422 39.2981 105.511 36.5807L100.812 29.4547L99.9552 27.1878C99.3364 25.5509 100.676 24.0458 101.931 23.4007L105.332 22.4936C107.319 22.3663 108.637 21.784 112.519 22.9475L116.161 23.7416C117.486 24.3259 119.255 24.0972 119.29 27.0426C119.22 28.1685 119.661 29.2078 118.921 30.4473Z" stroke="black" stroke-width="0.548375" stroke-linecap="round"/>
<path d="M115.433 34.8057L116.266 27.8543C115.815 27.8555 116.774 26.4509 115.079 25.8246C108.888 23.4137 105.31 25.1809 104.3 25.711C103.291 26.2411 102.414 27.6907 102.608 29.2137C102.801 30.7367 103.225 31.1024 103.513 31.8587" stroke="black" stroke-width="0.548375" stroke-linecap="round"/>
<path d="M172.891 168.818C173.185 166.765 174.497 166.568 173.441 162.057C172.891 158.837 171.313 156.179 167.748 154.602C165.591 154.295 163.624 152.757 161.13 154.62C160.403 155.255 159.861 155.594 159.384 155.853C158.393 156.885 156.466 156.946 155.521 160.874C155.522 162.371 155.887 162.951 155.204 166.17C154.987 167.41 154.358 168.188 155.073 170.472C155.845 171.528 155.775 172.647 158.154 173.584C158.807 174.187 163.995 174.756 165.674 174.699C167.352 174.642 167.269 175.215 169.829 172.797C170.844 171.515 171.766 170.995 172.891 168.818Z" stroke="black" stroke-width="0.548375"/>
<path d="M160.993 156.227C162.912 153.367 165.053 154.639 167.234 156.636C168.473 158.125 168.857 159.694 168.712 161.313C168.658 162.285 168.235 162.942 167.298 163.16C167.917 163.506 168.164 164.15 168.154 165.002L167.316 169.92C166.517 171.947 165.882 171.936 165.196 172.573C164.829 172.759 164.458 172.939 163.968 173.002C163.289 172.773 162.611 172.633 161.929 170.691C162.506 170.506 160.108 169.583 161.874 167.76C162.442 167.138 160.52 165.122 161.626 163.459C162.192 161.628 162.731 160.046 163.175 159.342C161.98 159.147 162.337 158.061 161.941 157.407" stroke="black" stroke-width="0.548375"/>
<path d="M164.592 158.96L163.175 159.342" stroke="black" stroke-width="0.548375"/>
<path d="M159.025 163.087C159.776 163.425 160.426 164.001 161.532 163.506" stroke="black" stroke-width="0.548375"/>
<path d="M163.626 169.126C162.743 168.99 162.082 168.542 161.826 167.523" stroke="black" stroke-width="0.548375"/>
<path d="M165.265 163.118C164.092 162.891 162.801 162.196 161.861 162.89" stroke="black" stroke-width="0.548375"/>
<path d="M161.555 172.394C160.808 172.371 160.102 172.434 159.238 172.163C158.003 170.784 157.56 170.782 156.774 170.184C156.627 170.14 155.07 168.519 156.196 166.073C156.818 164.822 156.969 164.389 156.71 163.472C157.32 161.332 156.989 160.85 157.125 159.547" stroke="black" stroke-width="0.548375"/>
<path d="M166.289 174.981C168.052 175.8 169.851 176.321 171.497 178.088C172.861 179.161 173.875 181.095 174.115 184.936C174.23 187.636 174.884 190.268 173.097 193.211C171.562 194.505 172.503 194.945 168.333 197.147C166.184 198.047 164.642 200.031 161.341 198.867C159.743 198.415 159.204 198.594 156.468 197.462C155.308 197.198 154.348 196.533 153.814 195.011C153.239 194.026 152.758 192.658 152.432 190.665C152.544 188.943 152.803 188.235 153.038 187.354C153.412 185.039 153.272 184.075 153.027 183.383C153.002 182.217 153.234 181.051 153.963 179.883C154.346 178.62 154.599 177.427 156.837 176.046C158.875 174.514 160.198 173.361 166.289 174.981Z" stroke="black" stroke-width="0.548375"/>
<path d="M162.424 197.257C161.627 196.877 161.618 196.213 159.207 196.414C158.624 196.339 158.04 196.328 157.455 195.521L156.177 194.721L155.087 193.778C154.237 192.854 154.04 191.855 154.323 190.802C154.472 189.633 154.711 188.224 154.505 188.012C154.392 187.287 154.616 186.113 154.875 184.891C154.756 183.314 153.637 183.534 155.096 179.123C155.191 178.183 155.688 177.702 156.605 177.701C157.351 177.554 157.552 177.21 158.493 176.467C159.161 176.071 159.507 175.676 160.995 175.278C162.13 175.422 163.264 175.045 164.401 175.979L166.391 177.77C167.995 179.1 168.167 179.837 168.289 180.554C168.735 181.624 168.561 182.696 168.392 183.768C168.354 184.682 168.04 185.438 167.121 185.852C167.562 186.377 168.057 186.63 168.262 188.354C168.733 191.349 168.009 192.116 167.519 193.32C166.561 194.711 165.603 195.759 164.645 196.92" stroke="black" stroke-width="0.548375"/>
<path d="M159.774 178.401C160.636 178.989 161.312 179.905 161.673 181.375C161.518 182.524 161.252 183.453 160.972 184.355C160.736 185.598 160.086 185.528 160.416 188.564C161.006 189.137 161.152 189.563 160.986 189.886C159.919 192.161 160.291 194.17 161.995 195.934" stroke="black" stroke-width="0.548375"/>
<path d="M158.158 193.203C158.683 192.063 159.281 190.959 160.798 190.312C161.007 189.667 161.719 189.411 163.065 189.645" stroke="black" stroke-width="0.548375"/>
<path d="M165.23 185.62C163.083 185.442 161.198 185.414 160.551 186.105" stroke="black" stroke-width="0.548375"/>
<path d="M155.164 186.923C156.843 186.457 158.003 185.539 160.597 185.869" stroke="black" stroke-width="0.548375"/>
<path d="M155.773 184.842L158.093 186.065" stroke="black" stroke-width="0.548375"/>
<path d="M165.027 180.421C163.487 180.724 162.411 181.027 161.626 181.328" stroke="black" stroke-width="0.548375"/>
<path d="M162.987 177.637C162.376 178.836 161.611 180.036 161.72 181.233" stroke="black" stroke-width="0.548375"/>
<path d="M155.005 198.6C153.901 198.257 152.688 198.923 151.463 199.696L149.813 201.592C148.651 202.698 148.163 203.802 148.262 204.905C148.367 206.827 147.856 208.751 146.575 210.677C145.756 213.04 145.221 215.323 146.639 217.059C147.505 218.634 148.557 220.134 150.668 221.208C152.875 222.118 154.82 223.357 157.482 223.696C159.222 223.83 160.634 224.403 163.437 223.113L167.259 220.55C167.903 220.079 168.516 219.815 169.519 216.904C169.847 214.199 171.107 211.609 169.592 208.678L167.166 203.106C166.02 201.674 165.258 200.101 162.807 199.147C161.378 198.686 160.419 197.967 157.699 198.215L155.005 198.6Z" stroke="black" stroke-width="0.548375"/>
<path d="M151.136 201.258C150.553 202.473 149.645 203.688 149.633 204.902C149.338 207.351 148.545 209.056 147.757 210.769C147.296 211.963 146.582 212.848 147.202 215.356C147.642 216.929 148.052 218.516 150.332 219.224L154.26 220.963C155.379 221.489 156.899 221.413 158.515 221.188C160.09 220.622 161.666 220.647 163.236 218.434C163.574 217.773 163.772 216.834 163.605 215.171" stroke="black" stroke-width="0.548375"/>
<path d="M164.358 213.939C165.116 213.948 165.704 213.692 165.583 212.329C165.408 209.74 165.763 207.096 164.429 204.626C164.431 203.188 164.52 201.692 163.426 200.989C161.978 199.932 161.285 198.117 158.22 198.686C156.707 199.022 155.701 199.039 155.195 198.741" stroke="black" stroke-width="0.548375"/>
<path d="M155.296 201.53C155.859 202.95 156.204 204.288 157.577 206.015C157.019 207.864 156.22 208.527 155.411 209.141C155.209 209.663 154.883 209.408 155.041 212.168C154.843 214.815 153.117 215.727 152.124 217.47" stroke="black" stroke-width="0.548375"/>
<path d="M161.095 213.334C159.107 212.365 157.118 211.082 155.134 211.553" stroke="black" stroke-width="0.548375"/>
<path d="M150.16 207.831C151.62 210.082 153.393 209.931 155.083 210.418" stroke="black" stroke-width="0.548375"/>
<path d="M153.083 204.751C154.257 206.074 155.42 207.399 155.364 209.094" stroke="black" stroke-width="0.548375"/>
<path d="M163.386 203.731C162.037 205.326 160.19 206.228 157.578 206.063" stroke="black" stroke-width="0.548375"/>
<path d="M146.607 222.968C141.966 225.275 142.034 226.515 141.894 228.275C142.245 230.383 142.151 231.168 142.14 232.199C142.077 234.366 143.427 234.935 144.278 236.069C147.005 238.798 148.458 237.916 150.382 238.37C152.152 238.097 153.23 237.827 154.256 237.556C157.142 236.856 156.89 235.771 157.984 234.852C159.387 232.969 159.51 230.564 158.769 227.806C158.162 226.165 156.929 224.938 155.638 223.748L152.467 222.149C150.032 221.143 147.243 222.525 146.607 222.968Z" stroke="black" stroke-width="0.548375"/>
<path d="M150.956 222.815C151.967 223.019 153.191 223.169 153.61 225.409C153.601 226.382 153.914 227.141 154.278 227.865C154.718 230.2 153.569 231.746 152.543 233.353C151.747 234.697 150.762 234.832 149.806 235.157C148.764 235.708 147.982 235.338 147.44 234.123C147.108 233.429 147.039 232.405 146.253 232.283C145.898 231.656 145.851 231.132 145.871 230.629C146.318 229.79 145.955 228.629 145.815 227.556C147.65 227.464 148.101 225.995 148.312 224.288C149.166 223.965 149.985 223.851 150.956 222.815Z" stroke="black" stroke-width="0.548375"/>
<path d="M148.761 233.126C147.673 232.141 147.693 230.412 147.709 228.685C148.378 225.79 149.591 224.406 151.529 225.035" stroke="black" stroke-width="0.548375"/>
<path d="M146.676 231.289C146.762 229.803 147.214 229.138 147.804 228.78" stroke="black" stroke-width="0.548375"/>
<path d="M149.399 224.19L149.261 225.514" stroke="black" stroke-width="0.548375"/>
<path d="M147.406 239.37C149.247 241.908 149.688 243.729 149.502 245.227C148.951 247.834 148.666 250.632 145.926 251.665C141.552 253.123 140.611 251.913 138.834 251.353C136.801 250.365 135.202 249.126 134.05 247.631C133.163 247.019 133.23 246.404 133.194 245.79C133.331 244.648 133.085 243.877 132.997 242.954C132.863 241.162 133.637 239.912 134.073 238.46C135.362 237.41 136.307 235.968 138.415 235.848L142.055 235.744C144.297 235.627 145.826 237.572 147.406 239.37Z" stroke="black" stroke-width="0.548375"/>
<path d="M146.462 239.893C145.812 240.807 145.005 241.884 144.578 242.45C144.348 242.855 144.542 243.14 144.487 243.774C144.76 245.42 144.25 245.314 143.783 245.667C143.306 246.037 142.817 246.381 142.462 246.994C142.056 248.223 141.478 247.95 140.953 248.133L138.779 248.517C137.055 249.036 136.783 248.24 135.847 248.193" stroke="black" stroke-width="0.548375"/>
<path d="M136.36 245.45C136.247 246.078 136.654 246.779 135.75 247.295" stroke="black" stroke-width="0.548375"/>
<path d="M141.042 246.147L137.011 241.335C136.164 240.312 135.516 240.064 135.453 242.096" stroke="black" stroke-width="0.548375"/>
<path d="M141.693 241.843C141.298 240.631 140.187 239.421 138.279 238.212C139.018 238.47 139.755 238.734 140.738 238.253C141.903 237.682 142.458 238.339 143.15 238.72" stroke="black" stroke-width="0.548375"/>
<path d="M131.971 248.204C128.808 247.759 126.039 247.745 125.499 250.159L123.905 254.89C122.758 258.497 123.962 257.767 124.151 258.908L126.522 261.691C127.429 262.608 128.405 263.476 130.546 263.524C133.684 263.408 136.86 263.358 137.53 258.826L137.8 253.53C137.149 251 136.436 248.506 131.971 248.204Z" stroke="black" stroke-width="0.548375"/>
<path d="M135.858 252.448C134.928 255.395 134.346 258.774 131.48 259.314C129.251 260.331 126.973 261.967 125.096 258.622" stroke="black" stroke-width="0.548375"/>
<path d="M126.132 257.011C127.265 257.685 128.443 258.475 128.589 256.58C128.794 254.604 127.94 253.693 127.585 252.28" stroke="black" stroke-width="0.548375"/>
<path d="M133.873 252.406C133.608 251.227 132.74 250.328 130.841 249.908" stroke="black" stroke-width="0.548375"/>
<path d="M132.887 255.056C132.243 255.671 131.595 255.17 130.944 253.265C130.605 251.816 130.005 251.425 129.425 250.952" stroke="black" stroke-width="0.548375"/>
<path d="M120.034 256.934C121.244 258.695 124.601 260.451 120.804 262.226" stroke="black" stroke-width="0.548375"/>
<path d="M117.202 258.784L116.362 262.852C115.815 264.81 115.262 264.004 114.707 262.856" stroke="black" stroke-width="0.548375"/>
<path d="M124.344 260.325C124.258 261.761 124.392 263.338 122.604 263.686C121.084 264.21 119.176 264.735 118.59 265.257C116.073 266.646 115.839 265.919 114.81 265.928" stroke="black" stroke-width="0.548375"/>
<path d="M115.114 255.765C116.012 253.256 118.206 253.227 119.696 254.429L121.83 257.118L124.342 259.522C124.707 260.648 125.69 260.578 124.545 264.627C123.856 266.818 122.471 267.796 120.772 268.23C118.594 268.856 116.729 268.454 115.05 267.441C113.905 266.262 112.094 265.706 112.58 263.004C113.066 261.789 113.089 261.505 114.13 259.171C114.458 258.041 114.788 257.483 115.114 255.765Z" stroke="black" stroke-width="0.548375"/>
<path d="M109.64 259.561C110.352 261.126 110.857 262.858 112.157 263.951C112.74 264.535 113.242 265.283 112.594 268.346C111.921 269.622 110.769 270.369 108.959 270.388C107.499 270.114 106.243 269.723 103.947 269.929C102.842 269.662 101.834 270.02 100.492 268.236C100.048 267.394 99.3575 266.857 100.481 264.076L103.92 259.481C104.853 258.787 104.955 257.717 107.129 257.582C108.83 257.634 109.149 258.658 109.64 259.561Z" stroke="black" stroke-width="0.548375"/>
<path d="M111.884 267.923C110.946 268.082 110.057 268.386 109.001 268.072L107.299 268.218C106.102 268.395 105.072 268.235 103.99 268.18C102.35 268.094 100.659 268.031 101.103 266.958" stroke="black" stroke-width="0.548375"/>
<path d="M165.873 130.203C165.593 130.894 165.444 131.559 165.936 132.094" stroke="black" stroke-width="0.548375" stroke-linecap="round"/>
<path d="M14.2471 141.794H13.0422V134.116C12.7521 134.393 12.3717 134.669 11.9008 134.946C11.43 135.223 11.0072 135.43 10.6323 135.569V134.404C11.3062 134.087 11.8953 133.703 12.3995 133.252C12.9038 132.802 13.2608 132.364 13.4706 131.94H14.2471V141.794Z" fill="black"/>
<path d="M18.326 115.045V116.203H11.8395C11.8305 115.913 11.8774 115.634 11.98 115.366C12.1451 114.925 12.4096 114.49 12.7733 114.061C13.137 113.633 13.6625 113.137 14.3497 112.575C15.4163 111.7 16.137 111.008 16.5119 110.497C16.8867 109.986 17.0742 109.503 17.0742 109.047C17.0742 108.57 16.9035 108.167 16.5621 107.839C16.2207 107.511 15.7755 107.347 15.2266 107.347C14.6465 107.347 14.1824 107.521 13.8343 107.869C13.4862 108.217 13.3099 108.699 13.3054 109.315L12.067 109.188C12.1518 108.264 12.4709 107.56 13.0243 107.076C13.5777 106.592 14.3207 106.35 15.2534 106.35C16.195 106.35 16.9403 106.611 17.4892 107.133C18.0381 107.655 18.3126 108.302 18.3126 109.074C18.3126 109.467 18.2322 109.853 18.0716 110.232C17.9109 110.611 17.6443 111.011 17.2717 111.43C16.899 111.85 16.2798 112.426 15.4141 113.157C14.6911 113.764 14.227 114.176 14.0217 114.392C13.8164 114.609 13.6468 114.826 13.513 115.045H18.326Z" fill="black"/>
<path d="M16.5698 89.3929L17.7747 89.2323C17.9131 89.915 18.1485 90.4071 18.481 90.7083C18.8134 91.0095 19.2184 91.1601 19.6959 91.1601C20.2627 91.1601 20.7413 90.9638 21.1318 90.5711C21.5223 90.1783 21.7175 89.6919 21.7175 89.1118C21.7175 88.5584 21.5368 88.1021 21.1753 87.7428C20.8138 87.3836 20.3542 87.204 19.7963 87.204C19.5687 87.204 19.2854 87.2486 18.9462 87.3378L19.0801 86.2802C19.1604 86.2891 19.2251 86.2936 19.2742 86.2936C19.7874 86.2936 20.2493 86.1597 20.6599 85.8919C21.0704 85.6242 21.2757 85.2114 21.2757 84.6535C21.2757 84.2117 21.1262 83.8458 20.8272 83.5557C20.5282 83.2656 20.1422 83.1206 19.6692 83.1206C19.2006 83.1206 18.8101 83.2679 18.4977 83.5624C18.1853 83.8569 17.9845 84.2988 17.8952 84.8878L16.6903 84.6736C16.8376 83.8659 17.1723 83.24 17.6944 82.7959C18.2166 82.3519 18.8659 82.1299 19.6424 82.1299C20.1779 82.1299 20.671 82.2448 21.1218 82.4746C21.5725 82.7045 21.9172 83.018 22.156 83.4151C22.3947 83.8123 22.5141 84.234 22.5141 84.6803C22.5141 85.1043 22.4003 85.4903 22.1727 85.8384C21.9451 86.1865 21.6082 86.4632 21.1619 86.6684C21.7421 86.8023 22.1928 87.0801 22.5141 87.5018C22.8354 87.9236 22.9961 88.4513 22.9961 89.085C22.9961 89.9418 22.6837 90.6681 22.0589 91.2639C21.4341 91.8597 20.6443 92.1575 19.6892 92.1575C18.8279 92.1575 18.1128 91.9009 17.5438 91.3877C16.9748 90.8745 16.6502 90.2096 16.5698 89.3929Z" fill="black"/>
<path d="M24.9957 72.333V69.9834H20.7383V68.8789L25.2166 62.5195H26.2006V68.8789H27.526V69.9834H26.2006V72.333H24.9957ZM24.9957 68.8789V64.4541L21.9231 68.8789H24.9957Z" fill="black"/>
<path d="M27.5308 53.3112L28.7959 53.2041C28.8896 53.82 29.1072 54.283 29.4486 54.5931C29.79 54.9033 30.2017 55.0584 30.6836 55.0583C31.2638 55.0584 31.7547 54.8397 32.1563 54.4023C32.558 53.965 32.7588 53.3848 32.7588 52.6619C32.7588 51.9746 32.5658 51.4324 32.1798 51.0352C31.7937 50.6381 31.2883 50.4395 30.6636 50.4395C30.2753 50.4395 29.925 50.5276 29.6126 50.7039C29.3002 50.8802 29.0548 51.1089 28.8763 51.39L27.745 51.2428L28.6955 46.2021H33.5755V47.3535H29.6595L29.1306 49.991C29.7197 49.5804 30.3378 49.3751 30.9849 49.3751C31.8417 49.3751 32.5647 49.6719 33.1538 50.2654C33.7428 50.859 34.0374 51.6221 34.0374 52.5548C34.0374 53.4429 33.7785 54.2104 33.2609 54.8575C32.6316 55.6519 31.7725 56.0491 30.6836 56.0491C29.7911 56.0491 29.0626 55.7992 28.498 55.2993C27.9335 54.7995 27.6111 54.1368 27.5308 53.3112Z" fill="black"/>
<path d="M46.1217 28.3642L44.9235 28.4579C44.8164 27.9849 44.6646 27.6413 44.4683 27.4271C44.1425 27.0834 43.7408 26.9116 43.2633 26.9116C42.8795 26.9116 42.5426 27.0187 42.2525 27.2329C41.8732 27.5096 41.5742 27.9135 41.3555 28.4445C41.1369 28.9756 41.0231 29.732 41.0141 30.7138C41.3042 30.272 41.659 29.944 42.0785 29.7298C42.498 29.5156 42.9376 29.4085 43.3972 29.4085C44.2005 29.4085 44.8844 29.7041 45.4489 30.2954C46.0135 30.8868 46.2957 31.651 46.2957 32.5882C46.2957 33.204 46.163 33.7763 45.8974 34.3052C45.6319 34.834 45.2671 35.239 44.803 35.5201C44.3388 35.8013 43.8123 35.9419 43.2232 35.9419C42.2191 35.9419 41.4002 35.5726 40.7665 34.834C40.1328 34.0954 39.8159 32.8782 39.8159 31.1824C39.8159 29.2858 40.1662 27.9068 40.8669 27.0455C41.4783 26.2958 42.3016 25.9209 43.337 25.9209C44.109 25.9209 44.7416 26.1373 45.2347 26.5702C45.7279 27.0031 46.0235 27.6011 46.1217 28.3642ZM41.2016 32.5948C41.2016 33.0099 41.2897 33.4071 41.466 33.7864C41.6423 34.1657 41.8888 34.4547 42.2057 34.6533C42.5225 34.8519 42.855 34.9511 43.2031 34.9511C43.7118 34.9511 44.1492 34.7459 44.5151 34.3353C44.8811 33.9247 45.064 33.3669 45.064 32.6618C45.064 31.9835 44.8833 31.4491 44.5218 31.0586C44.1603 30.6681 43.7051 30.4728 43.1562 30.4728C42.6118 30.4728 42.1499 30.6681 41.7706 31.0586C41.3912 31.4491 41.2016 31.9612 41.2016 32.5948Z" fill="black"/>
<path d="M58.6855 13.537V12.3789H65.0382V13.3161C64.4134 13.981 63.7942 14.8646 63.1806 15.9669C62.567 17.0692 62.0928 18.2027 61.7581 19.3675C61.5171 20.1886 61.3632 21.0878 61.2962 22.0652H60.0578C60.0712 21.2931 60.2229 20.3604 60.513 19.2671C60.8031 18.1737 61.2192 17.1194 61.7615 16.1041C62.3037 15.0889 62.8805 14.2332 63.4919 13.537H58.6855Z" fill="black"/>
<path d="M86.396 10.0123C85.8961 9.82936 85.5257 9.5683 85.2847 9.22913C85.0438 8.88997 84.9233 8.48386 84.9233 8.01081C84.9233 7.29679 85.1799 6.69656 85.6931 6.21012C86.2063 5.72369 86.8891 5.48048 87.7415 5.48047C88.5983 5.48048 89.2878 5.72927 89.8099 6.22685C90.332 6.72445 90.5931 7.33026 90.5931 8.04428C90.5931 8.49948 90.4737 8.89555 90.235 9.23247C89.9962 9.56941 89.6336 9.82936 89.1472 10.0123C89.7497 10.2087 90.2082 10.5255 90.5228 10.9629C90.8374 11.4002 90.9947 11.9224 90.9948 12.5293C90.9947 13.3683 90.698 14.0734 90.1044 14.6446C89.5109 15.2158 88.7299 15.5014 87.7615 15.5014C86.7931 15.5014 86.0122 15.2147 85.4186 14.6413C84.8251 14.0678 84.5283 13.3527 84.5283 12.4958C84.5283 11.8577 84.6901 11.3232 85.0136 10.8926C85.3372 10.4619 85.798 10.1685 86.396 10.0123ZM86.155 7.97065C86.155 8.43478 86.3045 8.8141 86.6035 9.10863C86.9025 9.40318 87.2907 9.55045 87.7682 9.55044C88.2323 9.55045 88.6128 9.40429 88.9096 9.11198C89.2063 8.81968 89.3547 8.46155 89.3547 8.03759C89.3547 7.59579 89.2019 7.22427 88.8962 6.92303C88.5905 6.62181 88.21 6.47119 87.7548 6.47119C87.2952 6.47119 86.9136 6.61846 86.6102 6.91299C86.3067 7.20754 86.155 7.56009 86.155 7.97065ZM85.7667 12.5025C85.7667 12.8461 85.8482 13.1786 86.011 13.4999C86.1739 13.8212 86.416 14.07 86.7374 14.2463C87.0587 14.4226 87.4045 14.5107 87.7749 14.5107C88.3506 14.5107 88.8259 14.3255 89.2008 13.9551C89.5756 13.5847 89.763 13.1139 89.7631 12.5427C89.763 11.9625 89.57 11.4828 89.184 11.1035C88.798 10.7241 88.3149 10.5345 87.7348 10.5345C87.168 10.5345 86.6983 10.7219 86.3257 11.0968C85.953 11.4716 85.7667 11.9402 85.7667 12.5025Z" fill="black"/>
<path d="M108.485 12.4847L109.643 12.3776C109.742 12.9221 109.929 13.317 110.206 13.5625C110.482 13.8079 110.837 13.9306 111.27 13.9306C111.641 13.9306 111.965 13.8458 112.244 13.6763C112.523 13.5067 112.752 13.2802 112.93 12.9968C113.109 12.7134 113.258 12.3308 113.379 11.8488C113.499 11.3668 113.559 10.8759 113.56 10.3761C113.559 10.3226 113.557 10.2422 113.553 10.1351C113.312 10.5189 112.983 10.8302 112.565 11.0689C112.148 11.3077 111.696 11.4271 111.21 11.4271C110.398 11.4271 109.71 11.1325 109.148 10.5435C108.586 9.95439 108.305 9.17788 108.305 8.21394C108.305 7.21876 108.598 6.41771 109.185 5.81078C109.772 5.20386 110.507 4.9004 111.391 4.90039C112.029 4.9004 112.612 5.07221 113.141 5.41583C113.67 5.75947 114.072 6.24925 114.346 6.88517C114.62 7.52111 114.758 8.44154 114.758 9.64646C114.758 10.9005 114.622 11.899 114.349 12.642C114.077 13.3851 113.672 13.9507 113.134 14.339C112.597 14.7272 111.966 14.9214 111.243 14.9214C110.476 14.9214 109.849 14.7083 109.362 14.2821C108.876 13.8559 108.584 13.2568 108.485 12.4847ZM113.419 8.15369C113.419 7.46198 113.235 6.91307 112.867 6.50696C112.498 6.10086 112.056 5.89781 111.538 5.8978C111.002 5.89781 110.536 6.11648 110.139 6.55382C109.742 6.99117 109.543 7.55793 109.543 8.2541C109.543 8.87888 109.732 9.38651 110.109 9.77699C110.486 10.1675 110.951 10.3627 111.504 10.3627C112.062 10.3627 112.521 10.1675 112.88 9.77699C113.239 9.38651 113.419 8.84541 113.419 8.15369Z" fill="black"/>
<path d="M133.853 19.1134H132.648V11.4353C132.358 11.712 131.977 11.9887 131.506 12.2654C131.035 12.5421 130.613 12.7496 130.238 12.8879V11.7232C130.912 11.4063 131.501 11.0225 132.005 10.5718C132.509 10.1211 132.866 9.68373 133.076 9.25977H133.853V19.1134Z" fill="black"/>
<path d="M136.945 14.2736C136.945 13.1133 137.064 12.1795 137.303 11.4721C137.542 10.7648 137.896 10.2193 138.367 9.83545C138.838 9.45167 139.431 9.25978 140.145 9.25977C140.671 9.25978 141.133 9.36576 141.53 9.57773C141.927 9.78972 142.255 10.0954 142.514 10.4948C142.773 10.8942 142.976 11.3807 143.123 11.9541C143.271 12.5276 143.344 13.3007 143.344 14.2736C143.344 15.425 143.226 16.3543 142.99 17.0617C142.753 17.769 142.399 18.3157 141.929 18.7017C141.458 19.0877 140.863 19.2807 140.145 19.2807C139.198 19.2807 138.455 18.9416 137.915 18.2632C137.268 17.4466 136.945 16.1167 136.945 14.2736ZM138.183 14.2736C138.183 15.8846 138.372 16.9568 138.749 17.4901C139.126 18.0234 139.591 18.29 140.145 18.29C140.698 18.29 141.163 18.0223 141.54 17.4867C141.917 16.9512 142.106 15.8802 142.106 14.2736C142.106 12.6581 141.917 11.5848 141.54 11.0538C141.163 10.5227 140.693 10.2572 140.131 10.2572C139.578 10.2572 139.136 10.4915 138.806 10.96C138.391 11.5581 138.183 12.6626 138.183 14.2736Z" fill="black"/>
<path d="M153.145 32.1544H151.94V24.4763C151.65 24.753 151.27 25.0297 150.799 25.3064C150.328 25.5831 149.905 25.7906 149.53 25.9289V24.7642C150.204 24.4473 150.793 24.0636 151.297 23.6128C151.802 23.1621 152.159 22.7247 152.369 22.3008H153.145V32.1544Z" fill="black"/>
<path d="M160.776 32.1544H159.571V24.4763C159.281 24.753 158.9 25.0297 158.43 25.3064C157.959 25.5831 157.536 25.7906 157.161 25.9289V24.7642C157.835 24.4473 158.424 24.0636 158.928 23.6128C159.433 23.1621 159.79 22.7247 159.999 22.3008H160.776V32.1544Z" fill="black"/>
<path d="M167.188 51.6935H165.983V44.0154C165.693 44.2921 165.313 44.5688 164.842 44.8455C164.371 45.1222 163.948 45.3297 163.573 45.468V44.3032C164.247 43.9864 164.836 43.6026 165.34 43.1519C165.845 42.7012 166.202 42.2638 166.412 41.8398H167.188V51.6935Z" fill="black"/>
<path d="M176.614 50.5354V51.6935H170.127C170.118 51.4034 170.165 51.1245 170.268 50.8567C170.433 50.4149 170.697 49.9798 171.061 49.5514C171.425 49.123 171.95 48.6276 172.637 48.0653C173.704 47.1906 174.425 46.4978 174.799 45.9868C175.174 45.4758 175.362 44.9927 175.362 44.5375C175.362 44.06 175.191 43.6573 174.85 43.3293C174.508 43.0013 174.063 42.8373 173.514 42.8373C172.934 42.8373 172.47 43.0113 172.122 43.3594C171.774 43.7075 171.598 44.1895 171.593 44.8053L170.355 44.6781C170.439 43.7543 170.759 43.0504 171.312 42.5661C171.865 42.082 172.608 41.8399 173.541 41.8398C174.483 41.8399 175.228 42.1009 175.777 42.623C176.326 43.1452 176.6 43.7923 176.6 44.5643C176.6 44.957 176.52 45.3431 176.359 45.7224C176.199 46.1017 175.932 46.5011 175.559 46.9206C175.187 47.3401 174.567 47.9158 173.702 48.6477C172.979 49.2546 172.515 49.6663 172.309 49.8827C172.104 50.0992 171.934 50.3167 171.801 50.5354H176.614Z" fill="black"/>
<path d="M175.104 70.505H173.899V62.8269C173.609 63.1036 173.228 63.3803 172.757 63.657C172.286 63.9337 171.864 64.1412 171.489 64.2795V63.1148C172.163 62.7979 172.752 62.4141 173.256 61.9634C173.76 61.5127 174.117 61.0753 174.327 60.6514H175.104V70.505Z" fill="black"/>
<path d="M178.203 67.9144L179.408 67.7537C179.546 68.4365 179.782 68.9285 180.114 69.2298C180.447 69.531 180.852 69.6816 181.329 69.6816C181.896 69.6816 182.375 69.4853 182.765 69.0925C183.156 68.6998 183.351 68.2134 183.351 67.6332C183.351 67.0799 183.17 66.6236 182.809 66.2643C182.447 65.9051 181.987 65.7254 181.43 65.7254C181.202 65.7254 180.919 65.7701 180.58 65.8593L180.713 64.8017C180.794 64.8106 180.858 64.8151 180.908 64.8151C181.421 64.8151 181.883 64.6812 182.293 64.4134C182.704 64.1457 182.909 63.7329 182.909 63.175C182.909 62.7332 182.76 62.3673 182.461 62.0772C182.162 61.7871 181.776 61.6421 181.302 61.6421C180.834 61.6421 180.443 61.7894 180.131 62.0839C179.819 62.3784 179.618 62.8202 179.529 63.4093L178.324 63.1951C178.471 62.3874 178.806 61.7615 179.328 61.3174C179.85 60.8734 180.499 60.6514 181.276 60.6514C181.811 60.6514 182.304 60.7663 182.755 60.9961C183.206 61.2259 183.551 61.5394 183.789 61.9366C184.028 62.3338 184.147 62.7555 184.147 63.2018C184.147 63.6258 184.034 64.0118 183.806 64.3599C183.578 64.708 183.241 64.9846 182.795 65.1899C183.375 65.3238 183.826 65.6016 184.147 66.0233C184.469 66.4451 184.629 66.9728 184.629 67.6065C184.629 68.4633 184.317 69.1896 183.692 69.7854C183.067 70.3811 182.278 70.679 181.323 70.679C180.461 70.679 179.746 70.4224 179.177 69.9092C178.608 69.396 178.283 68.7311 178.203 67.9144Z" fill="black"/>
<path d="M180.341 92.4884H179.136V84.8103C178.846 85.087 178.466 85.3637 177.995 85.6404C177.524 85.9171 177.101 86.1246 176.727 86.2629V85.0982C177.4 84.7813 177.99 84.3975 178.494 83.9468C178.998 83.4961 179.355 83.0587 179.565 82.6348H180.341V92.4884Z" fill="black"/>
<path d="M187.296 92.4883V90.1387H183.039V89.0341L187.517 82.6748H188.501V89.0341H189.826V90.1387H188.501V92.4883H187.296ZM187.296 89.0341V84.6094L184.223 89.0341H187.296Z" fill="black"/>
<path d="M184.541 115.992H183.336V108.314C183.046 108.591 182.666 108.868 182.195 109.144C181.724 109.421 181.301 109.628 180.926 109.767V108.602C181.6 108.285 182.189 107.901 182.693 107.451C183.198 107 183.555 106.563 183.765 106.139H184.541V115.992Z" fill="black"/>
<path d="M187.634 113.422L188.899 113.314C188.993 113.93 189.21 114.393 189.552 114.703C189.893 115.014 190.305 115.169 190.787 115.169C191.367 115.169 191.858 114.95 192.259 114.513C192.661 114.075 192.862 113.495 192.862 112.772C192.862 112.085 192.669 111.543 192.283 111.146C191.897 110.748 191.391 110.55 190.767 110.55C190.378 110.55 190.028 110.638 189.716 110.814C189.403 110.991 189.158 111.219 188.979 111.5L187.848 111.353L188.799 106.312H193.679V107.464H189.762L189.234 110.101C189.823 109.691 190.441 109.485 191.088 109.485C191.945 109.485 192.668 109.782 193.257 110.376C193.846 110.969 194.14 111.732 194.14 112.665C194.14 113.553 193.882 114.321 193.364 114.968C192.735 115.762 191.876 116.159 190.787 116.159C189.894 116.159 189.166 115.91 188.601 115.41C188.037 114.91 187.714 114.247 187.634 113.422Z" fill="black"/>
<path d="M185.678 140.014H184.473V132.336C184.183 132.612 183.802 132.889 183.332 133.166C182.861 133.442 182.438 133.65 182.063 133.788V132.624C182.737 132.307 183.326 131.923 183.83 131.472C184.334 131.021 184.692 130.584 184.901 130.16H185.678V140.014Z" fill="black"/>
<path d="M195.023 132.603L193.824 132.697C193.717 132.224 193.566 131.881 193.369 131.666C193.043 131.323 192.642 131.151 192.164 131.151C191.78 131.151 191.443 131.258 191.153 131.472C190.774 131.749 190.475 132.153 190.256 132.684C190.038 133.215 189.924 133.971 189.915 134.953C190.205 134.511 190.56 134.183 190.979 133.969C191.399 133.755 191.838 133.648 192.298 133.648C193.101 133.648 193.785 133.943 194.35 134.535C194.914 135.126 195.197 135.89 195.197 136.827C195.197 137.443 195.064 138.016 194.798 138.544C194.533 139.073 194.168 139.478 193.704 139.759C193.24 140.041 192.713 140.181 192.124 140.181C191.12 140.181 190.301 139.812 189.667 139.073C189.034 138.335 188.717 137.117 188.717 135.422C188.717 133.525 189.067 132.146 189.768 131.285C190.379 130.535 191.203 130.16 192.238 130.16C193.01 130.16 193.642 130.377 194.136 130.809C194.629 131.242 194.924 131.84 195.023 132.603ZM190.102 136.834C190.102 137.249 190.191 137.646 190.367 138.026C190.543 138.405 190.79 138.694 191.107 138.893C191.423 139.091 191.756 139.19 192.104 139.19C192.613 139.19 193.05 138.985 193.416 138.575C193.782 138.164 193.965 137.606 193.965 136.901C193.965 136.223 193.784 135.688 193.423 135.298C193.061 134.907 192.606 134.712 192.057 134.712C191.513 134.712 191.051 134.907 190.671 135.298C190.292 135.688 190.102 136.2 190.102 136.834Z" fill="black"/>
<path d="M184.689 168.545H183.484V160.867C183.194 161.144 182.813 161.42 182.342 161.697C181.871 161.974 181.449 162.181 181.074 162.32V161.155C181.748 160.838 182.337 160.454 182.841 160.003C183.345 159.553 183.702 159.115 183.912 158.691H184.689V168.545Z" fill="black"/>
<path d="M187.861 160.016V158.858H194.214V159.796C193.589 160.461 192.97 161.344 192.356 162.446C191.743 163.549 191.269 164.682 190.934 165.847C190.693 166.668 190.539 167.567 190.472 168.545H189.234C189.247 167.773 189.399 166.84 189.689 165.747C189.979 164.653 190.395 163.599 190.937 162.584C191.479 161.568 192.056 160.713 192.668 160.016H187.861Z" fill="black"/>
<path d="M184.319 193.901H183.114V186.223C182.824 186.5 182.443 186.777 181.973 187.053C181.502 187.33 181.079 187.538 180.704 187.676V186.511C181.378 186.194 181.967 185.811 182.471 185.36C182.976 184.909 183.333 184.472 183.542 184.048H184.319V193.901Z" fill="black"/>
<path d="M189.266 188.58C188.766 188.397 188.395 188.136 188.154 187.797C187.913 187.457 187.793 187.051 187.793 186.578C187.793 185.864 188.05 185.264 188.563 184.778C189.076 184.291 189.759 184.048 190.611 184.048C191.468 184.048 192.157 184.297 192.68 184.794C193.202 185.292 193.463 185.898 193.463 186.612C193.463 187.067 193.343 187.463 193.105 187.8C192.866 188.137 192.503 188.397 192.017 188.58C192.619 188.776 193.078 189.093 193.392 189.53C193.707 189.968 193.864 190.49 193.864 191.097C193.864 191.936 193.568 192.641 192.974 193.212C192.381 193.783 191.6 194.069 190.631 194.069C189.663 194.069 188.882 193.782 188.288 193.209C187.695 192.635 187.398 191.92 187.398 191.063C187.398 190.425 187.56 189.891 187.883 189.46C188.207 189.029 188.668 188.736 189.266 188.58ZM189.025 186.538C189.025 187.002 189.174 187.381 189.473 187.676C189.772 187.971 190.16 188.118 190.638 188.118C191.102 188.118 191.482 187.972 191.779 187.679C192.076 187.387 192.224 187.029 192.224 186.605C192.224 186.163 192.071 185.792 191.766 185.49C191.46 185.189 191.08 185.039 190.624 185.039C190.165 185.039 189.783 185.186 189.48 185.48C189.176 185.775 189.025 186.127 189.025 186.538ZM188.636 191.07C188.636 191.414 188.718 191.746 188.881 192.067C189.044 192.389 189.286 192.637 189.607 192.814C189.928 192.99 190.274 193.078 190.645 193.078C191.22 193.078 191.696 192.893 192.07 192.522C192.445 192.152 192.633 191.681 192.633 191.11C192.633 190.53 192.44 190.05 192.054 189.671C191.668 189.292 191.185 189.102 190.604 189.102C190.038 189.102 189.568 189.289 189.195 189.664C188.823 190.039 188.636 190.508 188.636 191.07Z" fill="black"/>
<path d="M180.774 221.864H179.569V214.186C179.279 214.463 178.899 214.74 178.428 215.016C177.957 215.293 177.534 215.501 177.159 215.639V214.474C177.833 214.157 178.422 213.774 178.926 213.323C179.431 212.872 179.788 212.435 179.997 212.011H180.774V221.864Z" fill="black"/>
<path d="M184.048 219.595L185.206 219.488C185.304 220.032 185.492 220.427 185.768 220.673C186.045 220.918 186.4 221.041 186.833 221.041C187.203 221.041 187.528 220.956 187.807 220.787C188.086 220.617 188.314 220.391 188.493 220.107C188.671 219.824 188.821 219.441 188.941 218.959C189.062 218.477 189.122 217.986 189.122 217.486C189.122 217.433 189.12 217.353 189.115 217.245C188.874 217.629 188.545 217.941 188.128 218.179C187.711 218.418 187.259 218.537 186.772 218.537C185.96 218.537 185.273 218.243 184.711 217.654C184.148 217.065 183.867 216.288 183.867 215.324C183.867 214.329 184.161 213.528 184.747 212.921C185.334 212.314 186.07 212.011 186.953 212.011C187.591 212.011 188.175 212.183 188.704 212.526C189.232 212.87 189.634 213.36 189.909 213.996C190.183 214.631 190.32 215.552 190.32 216.757C190.32 218.011 190.184 219.009 189.912 219.752C189.64 220.495 189.235 221.061 188.697 221.449C188.159 221.838 187.529 222.032 186.806 222.032C186.038 222.032 185.411 221.819 184.925 221.392C184.438 220.966 184.146 220.367 184.048 219.595ZM188.981 215.264C188.981 214.572 188.797 214.023 188.429 213.617C188.061 213.211 187.618 213.008 187.1 213.008C186.565 213.008 186.099 213.227 185.701 213.664C185.304 214.102 185.106 214.668 185.106 215.364C185.106 215.989 185.294 216.497 185.671 216.887C186.048 217.278 186.514 217.473 187.067 217.473C187.625 217.473 188.083 217.278 188.443 216.887C188.802 216.497 188.981 215.956 188.981 215.264Z" fill="black"/>
<path d="M175.491 241.442V242.6H169.004C168.996 242.31 169.042 242.031 169.145 241.763C169.31 241.321 169.575 240.886 169.938 240.458C170.302 240.029 170.827 239.534 171.515 238.972C172.581 238.097 173.302 237.404 173.677 236.893C174.052 236.382 174.239 235.899 174.239 235.444C174.239 234.966 174.069 234.564 173.727 234.236C173.386 233.908 172.941 233.744 172.392 233.744C171.812 233.744 171.347 233.918 170.999 234.266C170.651 234.614 170.475 235.096 170.47 235.712L169.232 235.584C169.317 234.661 169.636 233.957 170.189 233.472C170.743 232.988 171.486 232.746 172.418 232.746C173.36 232.746 174.105 233.007 174.654 233.529C175.203 234.051 175.478 234.699 175.478 235.471C175.478 235.863 175.397 236.249 175.237 236.629C175.076 237.008 174.809 237.407 174.437 237.827C174.064 238.246 173.445 238.822 172.579 239.554C171.856 240.161 171.392 240.573 171.187 240.789C170.981 241.005 170.812 241.223 170.678 241.442H175.491Z" fill="black"/>
<path d="M176.79 237.76C176.79 236.6 176.909 235.666 177.148 234.958C177.386 234.251 177.741 233.706 178.212 233.322C178.683 232.938 179.275 232.746 179.989 232.746C180.516 232.746 180.978 232.852 181.375 233.064C181.772 233.276 182.1 233.582 182.359 233.981C182.618 234.381 182.821 234.867 182.968 235.44C183.115 236.014 183.189 236.787 183.189 237.76C183.189 238.911 183.071 239.841 182.834 240.548C182.598 241.255 182.244 241.802 181.773 242.188C181.302 242.574 180.708 242.767 179.989 242.767C179.043 242.767 178.3 242.428 177.76 241.75C177.113 240.933 176.79 239.603 176.79 237.76ZM178.028 237.76C178.028 239.371 178.216 240.443 178.594 240.976C178.971 241.51 179.436 241.776 179.989 241.776C180.543 241.776 181.008 241.509 181.385 240.973C181.762 240.438 181.951 239.366 181.951 237.76C181.951 236.144 181.762 235.071 181.385 234.54C181.008 234.009 180.538 233.744 179.976 233.744C179.423 233.744 178.981 233.978 178.65 234.446C178.235 235.044 178.028 236.149 178.028 237.76Z" fill="black"/>
<path d="M163.276 260.833V261.991H156.789C156.78 261.701 156.827 261.422 156.93 261.155C157.095 260.713 157.359 260.278 157.723 259.849C158.087 259.421 158.612 258.925 159.299 258.363C160.366 257.488 161.087 256.796 161.462 256.285C161.836 255.774 162.024 255.291 162.024 254.835C162.024 254.358 161.853 253.955 161.512 253.627C161.17 253.299 160.725 253.135 160.176 253.135C159.596 253.135 159.132 253.309 158.784 253.657C158.436 254.005 158.26 254.487 158.255 255.103L157.017 254.976C157.102 254.052 157.421 253.348 157.974 252.864C158.527 252.38 159.27 252.138 160.203 252.138C161.145 252.138 161.89 252.399 162.439 252.921C162.988 253.443 163.262 254.09 163.262 254.862C163.262 255.255 163.182 255.641 163.021 256.02C162.861 256.4 162.594 256.799 162.221 257.218C161.849 257.638 161.23 258.214 160.364 258.946C159.641 259.552 159.177 259.964 158.971 260.181C158.766 260.397 158.597 260.615 158.463 260.833H163.276Z" fill="black"/>
<path d="M169.113 261.991H167.908V254.313C167.618 254.59 167.237 254.867 166.767 255.143C166.296 255.42 165.873 255.628 165.498 255.766V254.601C166.172 254.284 166.761 253.9 167.265 253.45C167.77 252.999 168.127 252.562 168.336 252.138H169.113V261.991Z" fill="black"/>
<path d="M147.528 274.038V275.196H141.042C141.033 274.906 141.08 274.627 141.182 274.36C141.347 273.918 141.612 273.483 141.975 273.054C142.339 272.626 142.865 272.131 143.552 271.568C144.618 270.694 145.339 270.001 145.714 269.49C146.089 268.979 146.276 268.496 146.276 268.04C146.276 267.563 146.106 267.16 145.764 266.832C145.423 266.504 144.978 266.34 144.429 266.34C143.849 266.34 143.385 266.514 143.036 266.862C142.688 267.21 142.512 267.692 142.508 268.308L141.269 268.181C141.354 267.257 141.673 266.553 142.226 266.069C142.78 265.585 143.523 265.343 144.456 265.343C145.397 265.343 146.142 265.604 146.691 266.126C147.24 266.648 147.515 267.295 147.515 268.067C147.515 268.46 147.434 268.846 147.274 269.225C147.113 269.605 146.846 270.004 146.474 270.424C146.101 270.843 145.482 271.419 144.616 272.151C143.893 272.758 143.429 273.169 143.224 273.386C143.019 273.602 142.849 273.82 142.715 274.038H147.528Z" fill="black"/>
<path d="M155.159 274.038V275.196H148.672C148.664 274.906 148.71 274.627 148.813 274.36C148.978 273.918 149.243 273.483 149.606 273.054C149.97 272.626 150.495 272.131 151.183 271.568C152.249 270.694 152.97 270.001 153.345 269.49C153.72 268.979 153.907 268.496 153.907 268.04C153.907 267.563 153.736 267.16 153.395 266.832C153.054 266.504 152.609 266.34 152.06 266.34C151.479 266.34 151.015 266.514 150.667 266.862C150.319 267.21 150.143 267.692 150.138 268.308L148.9 268.181C148.985 267.257 149.304 266.553 149.857 266.069C150.411 265.585 151.154 265.343 152.086 265.343C153.028 265.343 153.773 265.604 154.322 266.126C154.871 266.648 155.146 267.295 155.146 268.067C155.146 268.46 155.065 268.846 154.905 269.225C154.744 269.605 154.477 270.004 154.105 270.424C153.732 270.843 153.113 271.419 152.247 272.151C151.524 272.758 151.06 273.169 150.855 273.386C150.649 273.602 150.48 273.82 150.346 274.038H155.159Z" fill="black"/>
<path d="M126.408 280.818V281.976H119.921C119.912 281.686 119.959 281.407 120.062 281.139C120.227 280.697 120.491 280.262 120.855 279.834C121.219 279.405 121.744 278.91 122.431 278.348C123.498 277.473 124.219 276.78 124.593 276.269C124.968 275.758 125.156 275.275 125.156 274.82C125.156 274.342 124.985 273.94 124.644 273.611C124.302 273.283 123.857 273.119 123.308 273.119C122.728 273.119 122.264 273.294 121.916 273.642C121.568 273.99 121.391 274.472 121.387 275.088L120.149 274.96C120.233 274.037 120.552 273.333 121.106 272.848C121.659 272.364 122.402 272.122 123.335 272.122C124.277 272.122 125.022 272.383 125.571 272.905C126.12 273.427 126.394 274.075 126.394 274.847C126.394 275.239 126.314 275.625 126.153 276.005C125.992 276.384 125.726 276.783 125.353 277.203C124.981 277.622 124.361 278.198 123.496 278.93C122.773 279.537 122.309 279.949 122.103 280.165C121.898 280.381 121.728 280.599 121.595 280.818H126.408Z" fill="black"/>
<path d="M127.713 279.385L128.918 279.224C129.056 279.907 129.292 280.399 129.624 280.7C129.957 281.002 130.361 281.152 130.839 281.152C131.406 281.152 131.884 280.956 132.275 280.563C132.665 280.171 132.861 279.684 132.861 279.104C132.861 278.551 132.68 278.094 132.318 277.735C131.957 277.376 131.497 277.196 130.939 277.196C130.712 277.196 130.428 277.241 130.089 277.33L130.223 276.272C130.303 276.281 130.368 276.286 130.417 276.286C130.93 276.286 131.392 276.152 131.803 275.884C132.214 275.616 132.419 275.204 132.419 274.646C132.419 274.204 132.269 273.838 131.97 273.548C131.671 273.258 131.285 273.113 130.812 273.113C130.344 273.113 129.953 273.26 129.641 273.555C129.328 273.849 129.128 274.291 129.038 274.88L127.833 274.666C127.981 273.858 128.315 273.232 128.837 272.788C129.36 272.344 130.009 272.122 130.785 272.122C131.321 272.122 131.814 272.237 132.265 272.467C132.716 272.697 133.06 273.01 133.299 273.407C133.538 273.805 133.657 274.226 133.657 274.672C133.657 275.096 133.543 275.482 133.316 275.831C133.088 276.179 132.751 276.455 132.305 276.661C132.885 276.795 133.336 277.072 133.657 277.494C133.978 277.916 134.139 278.443 134.139 279.077C134.139 279.934 133.827 280.66 133.202 281.256C132.577 281.852 131.787 282.15 130.832 282.15C129.971 282.15 129.256 281.893 128.687 281.38C128.118 280.867 127.793 280.202 127.713 279.385Z" fill="black"/>
<path d="M109.154 286.226V287.384H102.667C102.658 287.094 102.705 286.815 102.808 286.547C102.973 286.105 103.237 285.67 103.601 285.242C103.965 284.813 104.49 284.318 105.177 283.756C106.244 282.881 106.965 282.188 107.34 281.677C107.714 281.166 107.902 280.683 107.902 280.228C107.902 279.75 107.731 279.348 107.39 279.02C107.048 278.692 106.603 278.528 106.054 278.528C105.474 278.528 105.01 278.702 104.662 279.05C104.314 279.398 104.138 279.88 104.133 280.496L102.895 280.369C102.979 279.445 103.299 278.741 103.852 278.257C104.405 277.772 105.148 277.53 106.081 277.53C107.023 277.53 107.768 277.791 108.317 278.313C108.866 278.836 109.14 279.483 109.14 280.255C109.14 280.647 109.06 281.033 108.899 281.413C108.739 281.792 108.472 282.192 108.099 282.611C107.727 283.031 107.107 283.606 106.242 284.338C105.519 284.945 105.055 285.357 104.849 285.573C104.644 285.79 104.474 286.007 104.341 286.226H109.154Z" fill="black"/>
<path d="M114.315 287.384V285.034H110.058V283.93L114.536 277.57H115.52V283.93H116.845V285.034H115.52V287.384H114.315ZM114.315 283.93V279.505L111.242 283.93H114.315Z" fill="black"/>
<path d="M91.1966 287.004V288.162H84.7101C84.7011 287.872 84.748 287.593 84.8506 287.325C85.0158 286.884 85.2802 286.449 85.6439 286.02C86.0076 285.592 86.5331 285.096 87.2203 284.534C88.2869 283.659 89.0076 282.967 89.3825 282.456C89.7574 281.945 89.9448 281.461 89.9448 281.006C89.9448 280.529 89.7741 280.126 89.4327 279.798C89.0913 279.47 88.6461 279.306 88.0972 279.306C87.5171 279.306 87.053 279.48 86.7049 279.828C86.3568 280.176 86.1805 280.658 86.176 281.274L84.9377 281.147C85.0224 280.223 85.3415 279.519 85.8949 279.035C86.4483 278.551 87.1913 278.309 88.124 278.309C89.0656 278.309 89.8109 278.57 90.3598 279.092C90.9087 279.614 91.1832 280.261 91.1832 281.033C91.1832 281.426 91.1029 281.812 90.9422 282.191C90.7815 282.57 90.5149 282.97 90.1423 283.389C89.7696 283.809 89.1504 284.385 88.2847 285.116C87.5617 285.723 87.0976 286.135 86.8923 286.351C86.687 286.568 86.5174 286.785 86.3836 287.004H91.1966Z" fill="black"/>
<path d="M92.4951 285.591L93.7603 285.484C93.854 286.1 94.0716 286.563 94.413 286.873C94.7543 287.184 95.166 287.339 95.648 287.339C96.2281 287.339 96.719 287.12 97.1207 286.683C97.5223 286.245 97.7232 285.665 97.7232 284.942C97.7232 284.255 97.5301 283.713 97.1441 283.316C96.7581 282.918 96.2527 282.72 95.6279 282.72C95.2397 282.72 94.8893 282.808 94.577 282.984C94.2646 283.16 94.0191 283.389 93.8406 283.67L92.7093 283.523L93.6599 278.482H98.5398V279.634H94.6238L94.095 282.271C94.6841 281.861 95.3021 281.655 95.9492 281.655C96.8061 281.655 97.529 281.952 98.1181 282.546C98.7072 283.139 99.0017 283.902 99.0017 284.835C99.0017 285.723 98.7429 286.491 98.2252 287.138C97.596 287.932 96.7369 288.329 95.648 288.329C94.7555 288.329 94.0269 288.079 93.4624 287.58C92.8979 287.08 92.5754 286.417 92.4951 285.591Z" fill="black"/>
<path d="M72.448 283.472V284.63H65.9615C65.9526 284.34 65.9995 284.061 66.1021 283.793C66.2672 283.351 66.5316 282.916 66.8953 282.488C67.259 282.059 67.7845 281.564 68.4718 281.002C69.5384 280.127 70.2591 279.434 70.634 278.923C71.0088 278.412 71.1962 277.929 71.1963 277.474C71.1962 276.997 71.0256 276.594 70.6842 276.266C70.3428 275.938 69.8976 275.774 69.3487 275.774C68.7685 275.774 68.3044 275.948 67.9563 276.296C67.6083 276.644 67.432 277.126 67.4275 277.742L66.1891 277.615C66.2739 276.691 66.593 275.987 67.1464 275.503C67.6997 275.018 68.4428 274.776 69.3755 274.776C70.3171 274.776 71.0624 275.037 71.6113 275.56C72.1602 276.082 72.4346 276.729 72.4346 277.501C72.4346 277.894 72.3543 278.28 72.1937 278.659C72.033 279.038 71.7664 279.438 71.3937 279.857C71.0211 280.277 70.4019 280.852 69.5361 281.584C68.8132 282.191 68.3491 282.603 68.1438 282.819C67.9385 283.036 67.7689 283.253 67.635 283.472H72.448Z" fill="black"/>
<path d="M79.9991 277.22L78.8009 277.313C78.6938 276.84 78.5421 276.497 78.3457 276.283C78.0199 275.939 77.6183 275.767 77.1408 275.767C76.757 275.767 76.4201 275.874 76.13 276.088C75.7507 276.365 75.4517 276.769 75.233 277.3C75.0143 277.831 74.9005 278.588 74.8916 279.569C75.1817 279.127 75.5364 278.799 75.9559 278.585C76.3754 278.371 76.815 278.264 77.2747 278.264C78.0779 278.264 78.7619 278.56 79.3264 279.151C79.8909 279.742 80.1732 280.506 80.1732 281.444C80.1732 282.059 80.0404 282.632 79.7749 283.161C79.5094 283.689 79.1445 284.094 78.6804 284.376C78.2163 284.657 77.6897 284.797 77.1006 284.797C76.0965 284.797 75.2776 284.428 74.6439 283.689C74.0102 282.951 73.6934 281.734 73.6934 280.038C73.6934 278.141 74.0437 276.762 74.7443 275.901C75.3557 275.151 76.1791 274.776 77.2144 274.776C77.9865 274.776 78.619 274.993 79.1122 275.426C79.6053 275.859 79.901 276.457 79.9991 277.22ZM75.079 281.45C75.079 281.865 75.1672 282.263 75.3434 282.642C75.5197 283.021 75.7663 283.31 76.0831 283.509C76.4 283.707 76.7324 283.807 77.0805 283.807C77.5893 283.807 78.0266 283.601 78.3926 283.191C78.7585 282.78 78.9415 282.222 78.9415 281.517C78.9415 280.839 78.7607 280.305 78.3993 279.914C78.0378 279.524 77.5826 279.328 77.0337 279.328C76.4892 279.328 76.0273 279.524 75.648 279.914C75.2687 280.305 75.079 280.817 75.079 281.45Z" fill="black"/>
<path d="M53.8352 275.826V276.984H47.3487C47.3398 276.694 47.3867 276.415 47.4893 276.148C47.6544 275.706 47.9188 275.271 48.2825 274.842C48.6463 274.414 49.1717 273.919 49.859 273.356C50.9256 272.482 51.6463 271.789 52.0212 271.278C52.396 270.767 52.5835 270.284 52.5835 269.829C52.5835 269.351 52.4128 268.948 52.0714 268.62C51.73 268.292 51.2848 268.128 50.7359 268.128C50.1558 268.128 49.6916 268.302 49.3435 268.65C48.9955 268.999 48.8192 269.48 48.8147 270.096L47.5763 269.969C47.6611 269.045 47.9802 268.341 48.5336 267.857C49.0869 267.373 49.83 267.131 50.7627 267.131C51.7043 267.131 52.4496 267.392 52.9985 267.914C53.5474 268.436 53.8218 269.083 53.8219 269.855C53.8218 270.248 53.7415 270.634 53.5809 271.013C53.4202 271.393 53.1536 271.792 52.7809 272.212C52.4083 272.631 51.7891 273.207 50.9233 273.939C50.2004 274.546 49.7363 274.957 49.531 275.174C49.3257 275.39 49.1561 275.608 49.0222 275.826H53.8352Z" fill="black"/>
<path d="M55.2144 268.456V267.298H61.567V268.235C60.9422 268.9 60.323 269.784 59.7094 270.886C59.0958 271.988 58.6216 273.122 58.2869 274.286C58.0459 275.108 57.892 276.007 57.825 276.984H56.5866C56.6 276.212 56.7517 275.279 57.0418 274.186C57.3319 273.093 57.748 272.038 58.2903 271.023C58.8325 270.008 59.4093 269.152 60.0207 268.456H55.2144Z" fill="black"/>
<path d="M39.5579 261.672V262.83H33.0714C33.0625 262.54 33.1093 262.261 33.212 261.993C33.3771 261.552 33.6415 261.117 34.0052 260.688C34.3689 260.26 34.8944 259.764 35.5816 259.202C36.6482 258.327 37.3689 257.635 37.7438 257.124C38.1187 256.613 38.3061 256.129 38.3061 255.674C38.3061 255.197 38.1354 254.794 37.794 254.466C37.4526 254.138 37.0075 253.974 36.4586 253.974C35.8784 253.974 35.4143 254.148 35.0662 254.496C34.7181 254.844 34.5418 255.326 34.5374 255.942L33.299 255.815C33.3838 254.891 33.7029 254.187 34.2562 253.703C34.8096 253.219 35.5526 252.977 36.4853 252.977C37.427 252.977 38.1722 253.238 38.7211 253.76C39.2701 254.282 39.5445 254.929 39.5445 255.701C39.5445 256.094 39.4642 256.48 39.3035 256.859C39.1429 257.238 38.8762 257.638 38.5036 258.057C38.131 258.477 37.5118 259.053 36.646 259.784C35.923 260.391 35.4589 260.803 35.2536 261.019C35.0484 261.236 34.8788 261.453 34.7449 261.672H39.5579Z" fill="black"/>
<path d="M42.7104 257.508C42.2106 257.325 41.8402 257.064 41.5992 256.725C41.3582 256.386 41.2377 255.98 41.2377 255.507C41.2377 254.793 41.4943 254.193 42.0075 253.706C42.5207 253.22 43.2035 252.977 44.0559 252.977C44.9127 252.977 45.6022 253.225 46.1244 253.723C46.6465 254.221 46.9076 254.826 46.9076 255.54C46.9076 255.996 46.7882 256.392 46.5494 256.729C46.3107 257.066 45.9481 257.325 45.4617 257.508C46.0641 257.705 46.5227 258.022 46.8373 258.459C47.1519 258.896 47.3092 259.418 47.3092 260.025C47.3092 260.864 47.0124 261.569 46.4189 262.141C45.8254 262.712 45.0444 262.998 44.076 262.998C43.1076 262.998 42.3266 262.711 41.7331 262.137C41.1395 261.564 40.8428 260.849 40.8428 259.992C40.8428 259.354 41.0045 258.819 41.3281 258.389C41.6516 257.958 42.1124 257.665 42.7104 257.508ZM42.4694 255.467C42.4694 255.931 42.6189 256.31 42.9179 256.605C43.2169 256.899 43.6052 257.047 44.0827 257.047C44.5468 257.047 44.9272 256.9 45.224 256.608C45.5208 256.316 45.6692 255.958 45.6692 255.534C45.6692 255.092 45.5163 254.72 45.2106 254.419C44.9049 254.118 44.5245 253.967 44.0693 253.967C43.6096 253.967 43.2281 254.115 42.9246 254.409C42.6212 254.704 42.4694 255.056 42.4694 255.467ZM42.0812 259.999C42.0812 260.342 42.1626 260.675 42.3255 260.996C42.4884 261.317 42.7305 261.566 43.0518 261.742C43.3731 261.919 43.719 262.007 44.0894 262.007C44.6651 262.007 45.1403 261.822 45.5152 261.451C45.8901 261.081 46.0775 260.61 46.0775 260.039C46.0775 259.459 45.8845 258.979 45.4985 258.6C45.1124 258.22 44.6294 258.031 44.0492 258.031C43.4825 258.031 43.0128 258.218 42.6401 258.593C42.2675 258.968 42.0812 259.436 42.0812 259.999Z" fill="black"/>
<path d="M28.034 242.701V243.859H21.5475C21.5385 243.569 21.5854 243.29 21.688 243.023C21.8532 242.581 22.1176 242.146 22.4813 241.717C22.845 241.289 23.3705 240.794 24.0577 240.231C25.1243 239.357 25.845 238.664 26.2199 238.153C26.5948 237.642 26.7822 237.159 26.7822 236.704C26.7822 236.226 26.6115 235.823 26.2701 235.495C25.9287 235.167 25.4835 235.003 24.9346 235.003C24.3545 235.003 23.8904 235.177 23.5423 235.525C23.1942 235.874 23.0179 236.355 23.0135 236.971L21.7751 236.844C21.8598 235.92 22.1789 235.216 22.7323 234.732C23.2857 234.248 24.0287 234.006 24.9614 234.006C25.903 234.006 26.6483 234.267 27.1972 234.789C27.7461 235.311 28.0206 235.958 28.0206 236.73C28.0206 237.123 27.9403 237.509 27.7796 237.888C27.6189 238.268 27.3523 238.667 26.9797 239.087C26.607 239.506 25.9878 240.082 25.1221 240.814C24.3991 241.421 23.935 241.832 23.7297 242.049C23.5244 242.265 23.3548 242.483 23.221 242.701H28.034Z" fill="black"/>
<path d="M29.5133 241.59L30.6713 241.483C30.7695 242.028 30.9569 242.422 31.2336 242.668C31.5103 242.913 31.8651 243.036 32.298 243.036C32.6684 243.036 32.993 242.951 33.272 242.782C33.5509 242.612 33.7796 242.386 33.9581 242.102C34.1366 241.819 34.2861 241.436 34.4066 240.954C34.5271 240.472 34.5873 239.981 34.5873 239.482C34.5873 239.428 34.5851 239.348 34.5806 239.241C34.3396 239.624 34.0105 239.936 33.5933 240.174C33.176 240.413 32.7242 240.533 32.2377 240.533C31.4255 240.533 30.7383 240.238 30.176 239.649C29.6137 239.06 29.3325 238.283 29.3325 237.319C29.3325 236.324 29.6259 235.523 30.2128 234.916C30.7996 234.309 31.5348 234.006 32.4185 234.006C33.0566 234.006 33.6401 234.178 34.169 234.521C34.6978 234.865 35.0994 235.355 35.3739 235.991C35.6483 236.627 35.7856 237.547 35.7856 238.752C35.7856 240.006 35.6494 241.004 35.3772 241.748C35.105 242.491 34.7 243.056 34.1623 243.444C33.6245 243.833 32.9942 244.027 32.2712 244.027C31.5036 244.027 30.8766 243.814 30.3902 243.388C29.9037 242.961 29.6114 242.362 29.5133 241.59ZM34.4468 237.259C34.4468 236.567 34.2627 236.019 33.8945 235.612C33.5263 235.206 33.0834 235.003 32.5657 235.003C32.0302 235.003 31.5639 235.222 31.1667 235.659C30.7695 236.097 30.5709 236.663 30.5709 237.36C30.5709 237.984 30.7595 238.492 31.1366 238.882C31.5137 239.273 31.9789 239.468 32.5323 239.468C33.0901 239.468 33.5486 239.273 33.9079 238.882C34.2671 238.492 34.4468 237.951 34.4468 237.259Z" fill="black"/>
<path d="M9.94971 217.665L11.1546 217.505C11.293 218.188 11.5284 218.68 11.8609 218.981C12.1933 219.282 12.5983 219.433 13.0758 219.433C13.6426 219.433 14.1212 219.236 14.5117 218.844C14.9022 218.451 15.0974 217.964 15.0974 217.384C15.0974 216.831 14.9167 216.375 14.5552 216.015C14.1937 215.656 13.7341 215.476 13.1762 215.476C12.9486 215.476 12.6652 215.521 12.3261 215.61L12.46 214.553C12.5403 214.562 12.605 214.566 12.6541 214.566C13.1673 214.566 13.6292 214.432 14.0398 214.164C14.4503 213.897 14.6556 213.484 14.6556 212.926C14.6556 212.484 14.5061 212.118 14.2071 211.828C13.9081 211.538 13.5221 211.393 13.049 211.393C12.5805 211.393 12.19 211.54 11.8776 211.835C11.5652 212.129 11.3644 212.571 11.2751 213.16L10.0702 212.946C10.2175 212.138 10.5522 211.512 11.0743 211.068C11.5964 210.624 12.2458 210.402 13.0223 210.402C13.5578 210.402 14.0509 210.517 14.5016 210.747C14.9524 210.977 15.2971 211.29 15.5359 211.688C15.7746 212.085 15.894 212.507 15.894 212.953C15.894 213.377 15.7802 213.763 15.5526 214.111C15.325 214.459 14.9881 214.736 14.5418 214.941C15.122 215.075 15.5727 215.353 15.894 215.774C16.2153 216.196 16.376 216.724 16.376 217.357C16.376 218.214 16.0636 218.941 15.4388 219.536C14.814 220.132 14.0241 220.43 13.0691 220.43C12.2078 220.43 11.4927 220.173 10.9237 219.66C10.3547 219.147 10.03 218.482 9.94971 217.665Z" fill="black"/>
<path d="M17.5742 215.416C17.5742 214.256 17.6936 213.322 17.9323 212.615C18.1711 211.907 18.5259 211.362 18.9967 210.978C19.4675 210.594 20.0599 210.402 20.774 210.402C21.3006 210.402 21.7624 210.508 22.1596 210.72C22.5568 210.932 22.8848 211.238 23.1437 211.637C23.4025 212.037 23.6055 212.523 23.7528 213.097C23.9001 213.67 23.9737 214.443 23.9737 215.416C23.9737 216.568 23.8554 217.497 23.6189 218.204C23.3824 218.912 23.0287 219.458 22.5579 219.844C22.0871 220.23 21.4925 220.423 20.774 220.423C19.8279 220.423 19.0848 220.084 18.5449 219.406C17.8978 218.589 17.5742 217.259 17.5742 215.416ZM18.8126 215.416C18.8126 217.027 19.0012 218.099 19.3783 218.633C19.7554 219.166 20.2206 219.433 20.774 219.433C21.3273 219.433 21.7926 219.165 22.1697 218.629C22.5468 218.094 22.7353 217.023 22.7353 215.416C22.7353 213.801 22.5468 212.727 22.1697 212.196C21.7926 211.665 21.3229 211.4 20.7606 211.4C20.2072 211.4 19.7654 211.634 19.4352 212.103C19.0201 212.701 18.8126 213.805 18.8126 215.416Z" fill="black"/>
<path d="M5.82471 188.395L7.02963 188.234C7.16797 188.917 7.40338 189.409 7.73585 189.71C8.06832 190.011 8.47331 190.162 8.95082 190.162C9.51758 190.162 9.9962 189.966 10.3867 189.573C10.7772 189.18 10.9724 188.694 10.9724 188.114C10.9724 187.56 10.7917 187.104 10.4302 186.745C10.0687 186.386 9.60906 186.206 9.05123 186.206C8.82363 186.206 8.54025 186.251 8.20109 186.34L8.33497 185.282C8.41529 185.291 8.48 185.296 8.5291 185.296C9.0423 185.296 9.50419 185.162 9.91476 184.894C10.3253 184.626 10.5306 184.213 10.5306 183.655C10.5306 183.214 10.3811 182.848 10.0821 182.558C9.78311 182.268 9.39708 182.123 8.92404 182.123C8.45546 182.123 8.06497 182.27 7.75259 182.564C7.4402 182.859 7.23938 183.301 7.15012 183.89L5.9452 183.676C6.09247 182.868 6.42717 182.242 6.9493 181.798C7.47144 181.354 8.12076 181.132 8.89727 181.132C9.43279 181.132 9.92591 181.247 10.3766 181.477C10.8274 181.706 11.1721 182.02 11.4109 182.417C11.6496 182.814 11.769 183.236 11.769 183.682C11.769 184.106 11.6552 184.492 11.4276 184.84C11.2 185.188 10.8631 185.465 10.4168 185.67C10.997 185.804 11.4477 186.082 11.769 186.504C12.0903 186.926 12.251 187.453 12.251 188.087C12.251 188.944 11.9386 189.67 11.3138 190.266C10.689 190.862 9.89914 191.159 8.94413 191.159C8.08282 191.159 7.36768 190.903 6.79869 190.39C6.22969 189.876 5.90503 189.212 5.82471 188.395Z" fill="black"/>
<path d="M17.9878 190.985H16.7829V183.307C16.4928 183.584 16.1124 183.861 15.6416 184.137C15.1708 184.414 14.7479 184.622 14.373 184.76V183.595C15.0469 183.278 15.636 182.895 16.1403 182.444C16.6446 181.993 17.0016 181.556 17.2113 181.132H17.9878V190.985Z" fill="black"/>
<path d="M5.68945 165.04L6.89438 164.88C7.03272 165.563 7.26813 166.055 7.6006 166.356C7.93307 166.657 8.33806 166.808 8.81557 166.808C9.38232 166.808 9.86095 166.611 10.2514 166.219C10.6419 165.826 10.8372 165.339 10.8372 164.759C10.8372 164.206 10.6564 163.75 10.2949 163.39C9.93347 163.031 9.47381 162.851 8.91598 162.851C8.68838 162.851 8.405 162.896 8.06583 162.985L8.19972 161.928C8.28004 161.937 8.34475 161.941 8.39384 161.941C8.90705 161.941 9.36893 161.807 9.77951 161.539C10.1901 161.272 10.3954 160.859 10.3954 160.301C10.3954 159.859 10.2459 159.493 9.94686 159.203C9.64785 158.913 9.26183 158.768 8.78879 158.768C8.3202 158.768 7.92972 158.915 7.61733 159.21C7.30494 159.504 7.10412 159.946 7.01487 160.535L5.80995 160.321C5.95721 159.513 6.29191 158.887 6.81405 158.443C7.33618 157.999 7.9855 157.777 8.76201 157.777C9.29753 157.777 9.79066 157.892 10.2414 158.122C10.6921 158.352 11.0369 158.665 11.2756 159.063C11.5144 159.46 11.6337 159.882 11.6338 160.328C11.6337 160.752 11.5199 161.138 11.2924 161.486C11.0648 161.834 10.7278 162.111 10.2816 162.316C10.8617 162.45 11.3124 162.728 11.6338 163.149C11.9551 163.571 12.1157 164.099 12.1157 164.732C12.1157 165.589 11.8033 166.316 11.1786 166.911C10.5538 167.507 9.76388 167.805 8.80887 167.805C7.94757 167.805 7.23243 167.548 6.66343 167.035C6.09444 166.522 5.76978 165.857 5.68945 165.04Z" fill="black"/>
<path d="M19.6468 166.473V167.631H13.1603C13.1513 167.341 13.1982 167.062 13.3008 166.794C13.4659 166.352 13.7304 165.917 14.0941 165.489C14.4578 165.06 14.9833 164.565 15.6705 164.003C16.7371 163.128 17.4578 162.435 17.8327 161.924C18.2075 161.413 18.395 160.93 18.395 160.475C18.395 159.998 18.2243 159.595 17.8829 159.267C17.5415 158.939 17.0963 158.775 16.5474 158.775C15.9673 158.775 15.5032 158.949 15.1551 159.297C14.807 159.645 14.6307 160.127 14.6262 160.743L13.3878 160.616C13.4726 159.692 13.7917 158.988 14.3451 158.504C14.8985 158.019 15.6415 157.777 16.5742 157.777C17.5158 157.777 18.2611 158.038 18.81 158.561C19.3589 159.083 19.6334 159.73 19.6334 160.502C19.6334 160.895 19.553 161.281 19.3924 161.66C19.2317 162.039 18.9651 162.439 18.5925 162.858C18.2198 163.278 17.6006 163.853 16.7349 164.585C16.0119 165.192 15.5478 165.604 15.3425 165.82C15.1372 166.037 14.9676 166.254 14.8338 166.473H19.6468Z" fill="black"/>
<path d="M51.1672 144.972C51.6034 10.3017 145.532 12.8973 145.896 150.504C145.667 284.787 50.3405 285.35 50.4757 158.455" stroke="black" stroke-width="1.24481"/>
</svg>
