<svg width="13" height="10" viewBox="0 0 13 10" fill="none" xmlns="http://www.w3.org/2000/svg">
<path d="M0.959868 3.88046L0.479934 4.36119L0 3.88046L0.479934 3.39974L0.959868 3.88046ZM12.5 9.32005C12.5 9.50039 12.4285 9.67333 12.3012 9.80085C12.1739 9.92836 12.0012 10 11.8212 10C11.6411 10 11.4685 9.92836 11.3412 9.80085C11.2139 9.67333 11.1423 9.50039 11.1423 9.32005H12.5ZM3.87409 7.76093L0.479934 4.36119L1.4398 3.39974L4.83396 6.79948L3.87409 7.76093ZM0.479934 3.39974L3.87409 0L4.83396 0.961447L1.4398 4.36119L0.479934 3.39974ZM0.959868 3.20052H7.74818V4.56041H0.959868V3.20052ZM12.5 7.96015V9.32005H11.1423V7.96015H12.5ZM7.74818 3.20052C9.00844 3.20052 10.2171 3.70198 11.1082 4.59458C11.9994 5.48719 12.5 6.69782 12.5 7.96015H11.1423C11.1423 7.05849 10.7847 6.19375 10.1482 5.55617C9.51168 4.9186 8.64837 4.56041 7.74818 4.56041V3.20052Z" fill="#071232"/>
</svg>
