<svg width="24" height="24" viewBox="0 0 24 24" fill="none" xmlns="http://www.w3.org/2000/svg">
    <path fill-rule="evenodd" clip-rule="evenodd" d="M12.0261 0C8.86141 0 5.97834 0.99475 4.27232 1.80748C4.11818 1.88082 3.97455 1.95283 3.84073 2.02217C3.57589 2.15951 3.35029 2.28752 3.17093 2.4002L5.11166 5.11909L6.02528 5.46512C9.59567 7.17926 14.3837 7.17926 17.9548 5.46512L18.9918 4.95308L20.8267 2.4002C20.4466 2.16422 20.0514 1.95112 19.6433 1.76215C17.9457 0.95808 15.1313 0 12.0268 0H12.0261ZM7.51271 3.07759C6.82547 2.95522 6.14671 2.79313 5.48019 2.59222C7.07832 1.91683 9.45974 1.2001 12.0261 1.2001C13.8036 1.2001 15.4844 1.54413 16.8745 1.98017C15.2455 2.19818 13.5073 2.56821 11.851 3.02359C10.5478 3.38228 9.02466 3.34361 7.51271 3.07759ZM18.6947 6.45387L18.5223 6.53654C14.5946 8.42203 9.38478 8.42203 5.45707 6.53654L5.29383 6.45787C-0.60684 12.6191 -5.11186 24 12.0261 24C29.1641 24 24.5491 12.4077 18.6947 6.45387ZM11.2982 12.001C10.9266 12.001 10.5701 12.1415 10.3074 12.3916C10.0446 12.6416 9.89694 12.9808 9.89694 13.3344C9.89694 13.6881 10.0446 14.0273 10.3074 14.2773C10.5701 14.5274 10.9266 14.6679 11.2982 14.6679V12.001ZM12.6994 10.6676V10.0008H11.2982V10.6676C10.5549 10.6676 9.84209 10.9485 9.31652 11.4487C8.79095 11.9488 8.49568 12.6271 8.49568 13.3344C8.49568 14.0417 8.79095 14.7201 9.31652 15.2202C9.84209 15.7204 10.5549 16.0013 11.2982 16.0013V18.6682C10.6886 18.6682 10.1695 18.2982 9.97611 17.7795C9.94742 17.6946 9.90113 17.6161 9.84 17.5485C9.77886 17.481 9.70411 17.4258 9.62016 17.3862C9.53622 17.3467 9.44479 17.3235 9.35127 17.3181C9.25776 17.3128 9.16407 17.3253 9.07574 17.355C8.98741 17.3847 8.90624 17.431 8.83702 17.4911C8.76781 17.5511 8.71195 17.6238 8.67276 17.7048C8.63358 17.7857 8.61185 17.8734 8.60887 17.9625C8.6059 18.0516 8.62173 18.1403 8.65543 18.2235C8.84869 18.7435 9.2066 19.1938 9.67988 19.5122C10.1532 19.8307 10.7185 20.0017 11.2982 20.0017V20.6684H12.6994V20.0017C13.4427 20.0017 14.1555 19.7207 14.6811 19.2206C15.2067 18.7204 15.5019 18.0421 15.5019 17.3348C15.5019 16.6275 15.2067 15.9491 14.6811 15.449C14.1555 14.9489 13.4427 14.6679 12.6994 14.6679V12.001C13.309 12.001 13.8281 12.371 14.0215 12.8897C14.0502 12.9746 14.0965 13.0531 14.1576 13.1207C14.2188 13.1882 14.2935 13.2434 14.3775 13.283C14.4614 13.3226 14.5528 13.3457 14.6463 13.3511C14.7399 13.3564 14.8335 13.3439 14.9219 13.3142C15.0102 13.2845 15.0914 13.2382 15.1606 13.1782C15.2298 13.1181 15.2857 13.0454 15.3249 12.9645C15.364 12.8835 15.3858 12.7959 15.3887 12.7067C15.3917 12.6176 15.3759 12.5289 15.3422 12.4457C15.1489 11.9257 14.791 11.4754 14.3177 11.157C13.8445 10.8386 13.2791 10.6676 12.6994 10.6676ZM12.6994 16.0013V18.6682C13.0711 18.6682 13.4275 18.5277 13.6903 18.2777C13.9531 18.0276 14.1007 17.6884 14.1007 17.3348C14.1007 16.9811 13.9531 16.642 13.6903 16.3919C13.4275 16.1418 13.0711 16.0013 12.6994 16.0013Z"/>
</svg>
