<svg viewBox="0 0 512 512" fill="none" xmlns="http://www.w3.org/2000/svg">
<path d="M472.971 122.344L373.656 23.0291C371.433 20.7935 368.788 19.0212 365.876 17.8147C362.963 16.6081 359.84 15.9914 356.687 16.0001H56C49.6371 16.0075 43.5369 18.5384 39.0376 23.0377C34.5384 27.537 32.0074 33.6372 32 40.0001V472C32.0074 478.363 34.5384 484.463 39.0376 488.962C43.5369 493.462 49.6371 495.993 56 496H456C462.363 495.993 468.463 493.462 472.962 488.962C477.462 484.463 479.993 478.363 480 472V139.313C480.009 136.16 479.392 133.037 478.185 130.124C476.979 127.212 475.207 124.567 472.971 122.344ZM320 48.0001V144H176V48.0001H320ZM448 464H64V48.0001H144V176H352V48.0001H353.373L448 142.627V464Z" fill="#4CA6A8"/>
<path d="M252 224C233.804 224 216.017 229.396 200.888 239.505C185.758 249.614 173.966 263.982 167.003 280.793C160.04 297.604 158.218 316.102 161.768 333.948C165.318 351.795 174.08 368.187 186.946 381.054C199.813 393.92 216.205 402.682 234.052 406.232C251.898 409.782 270.396 407.96 287.207 400.997C304.018 394.034 318.386 382.242 328.495 367.112C338.604 351.983 344 334.196 344 316C343.974 291.608 334.272 268.223 317.025 250.975C299.777 233.728 276.392 224.026 252 224ZM252 376C240.133 376 228.533 372.481 218.666 365.888C208.799 359.295 201.109 349.925 196.567 338.961C192.026 327.997 190.838 315.933 193.153 304.295C195.468 292.656 201.182 281.965 209.574 273.574C217.965 265.182 228.656 259.468 240.295 257.153C251.933 254.838 263.997 256.026 274.961 260.567C285.925 265.108 295.295 272.799 301.888 282.666C308.481 292.533 312 304.133 312 316C311.982 331.907 305.655 347.158 294.407 358.407C283.158 369.655 267.908 375.982 252 376Z" fill="#4CA6A8"/>
</svg>
