<svg width="15" height="15" viewBox="0 0 15 15" fill="none" xmlns="http://www.w3.org/2000/svg">
<path fill-rule="evenodd" clip-rule="evenodd" d="M2.99987 0C2.44758 0 1.99986 0.447715 1.99986 1V11L0.244039 14.5117C0.160717 14.6783 0.33046 14.8583 0.501708 14.7849L4.66653 13H13.9999C14.5521 13 14.9999 12.5523 14.9999 12V1C14.9999 0.447715 14.5521 0 13.9999 0H2.99987ZM7.99987 2C7.44758 2 6.99987 2.44772 6.99987 3V5H4.99987C4.44758 5 3.99987 5.44771 3.99987 6L3.99986 7C3.99986 7.55228 4.44758 8 4.99986 8H6.99987V10C6.99987 10.5523 7.44758 11 7.99987 11H8.99986C9.55215 11 9.99986 10.5523 9.99986 10V8H11.9999C12.5521 8 12.9999 7.55228 12.9999 7V6C12.9999 5.44772 12.5521 5 11.9999 5H9.99986V3C9.99986 2.44772 9.55215 2 8.99986 2H7.99987Z" fill="#178082"/>
</svg>
