<svg viewBox="0 0 50 39" fill="none" xmlns="http://www.w3.org/2000/svg">
<path d="M22.7157 21.611C25.1257 19.691 27.6657 17.721 30.1457 15.671C31.6657 14.411 33.2857 13.701 35.4057 14.221C37.2257 15.071 38.3857 16.581 38.8257 18.801C38.6457 20.521 37.6957 21.911 36.3357 23.091C34.3657 24.811 32.4057 26.531 30.5057 28.321C28.0257 30.651 25.2757 30.891 22.2557 29.571C20.6757 28.881 19.0557 28.251 17.4857 27.541C15.4857 26.641 13.6257 26.551 11.3957 27.171C8.82573 27.881 6.35573 29.371 3.53573 29.001C1.89573 28.121 1.05573 26.931 1.59573 25.321C2.16573 24.021 3.16573 23.731 4.04573 23.311C4.48573 23.101 5.00573 23.071 5.46573 22.901C11.2724 20.701 17.0257 20.2743 22.7257 21.621L22.7157 21.611Z" fill="#178082"/>
<path d="M0.325947 37.441C0.0559472 37.031 -0.0240527 36.661 0.00594725 36.051C0.0359473 35.171 0.585947 34.381 1.39595 34.051C5.18595 32.481 9.23595 31.431 13.1959 30.001C13.7059 29.811 14.2759 29.811 14.7859 30.001C17.4359 30.981 20.0659 31.931 22.6759 32.941C26.8159 34.541 30.3659 33.881 33.5159 30.591C36.6159 27.361 39.7159 24.111 43.1759 21.241C43.4259 21.031 43.6659 20.811 43.9459 20.621C44.7259 20.071 45.8459 20.071 46.5659 20.701C46.9459 21.031 47.156 21.461 47.216 21.981C47.296 22.641 47.0259 23.301 46.5659 23.781C42.7559 27.691 39.156 31.661 35.216 35.251C31.726 38.421 27.4759 39.601 22.7859 37.971C20.5659 37.201 18.3159 36.491 16.1959 35.521C14.5859 34.781 13.1859 34.831 11.5559 35.441C8.76595 36.481 5.90595 37.361 2.93595 38.321C1.97595 38.631 0.895947 38.311 0.345947 37.471L0.325947 37.441Z" fill="#178082"/>
<path d="M37.4358 11.011C37.3858 7.65103 39.8858 5.06103 43.2258 5.00103C46.5558 4.94103 49.3058 7.52103 49.3258 10.721C49.3458 13.751 46.3758 16.841 43.4258 16.871C40.1258 16.901 37.4858 14.311 37.4358 11.001V11.011Z" fill="#178082"/>
<path fill-rule="evenodd" clip-rule="evenodd" d="M10 1C10 0.447715 10.4477 0 11 0H22C22.5523 0 23 0.447715 23 1V12C23 12.5523 22.5523 13 22 13H11C10.4477 13 10 12.5523 10 12V1ZM15 3C15 2.44772 15.4477 2 16 2H17C17.5523 2 18 2.44772 18 3V5H20C20.5523 5 21 5.44772 21 6V7C21 7.55228 20.5523 8 20 8H18V10C18 10.5523 17.5523 11 17 11H16C15.4477 11 15 10.5523 15 10V8H13C12.4477 8 12 7.55228 12 7L12 6C12 5.44771 12.4477 5 13 5H15V3Z" fill="#F08F02"/>
</svg>
