<svg width="24" height="24" viewBox="0 0 24 24" fill="none" xmlns="http://www.w3.org/2000/svg">
<path d="M14.9567 10.9243H21.9386C23.3094 10.9243 24 10.0899 24 8.36952V2.54195C24 0.820988 23.3094 0 21.9386 0H14.9567C13.586 0 12.8953 0.820988 12.8953 2.54195V8.36952C12.8953 10.0899 13.586 10.9243 14.9567 10.9243ZM2.06089 10.9243H9.04288C10.4136 10.9243 11.1042 10.0899 11.1042 8.36952V2.54195C11.1042 0.820988 10.4136 0 9.04288 0H2.06089C0.690647 0 0 0.820988 0 2.54195V8.36952C0 10.0899 0.690647 10.9243 2.06089 10.9243ZM2.06089 24H9.04288C10.4136 24 11.1042 23.179 11.1042 21.4581V15.6177C11.1042 13.9101 10.4136 13.0757 9.04288 13.0757H2.06089C0.690647 13.0757 0 13.9101 0 15.6177V21.4581C0 23.179 0.690647 24 2.06089 24ZM14.9567 24H21.9386C23.3094 24 24 23.179 24 21.4581V15.6177C24 13.9101 23.3094 13.0757 21.9386 13.0757H14.9567C13.586 13.0757 12.8953 13.9101 12.8953 15.6177V21.4581C12.8953 23.179 13.586 24 14.9567 24Z"/>
</svg>
