<svg width="24" height="24" viewBox="0 0 24 24" fill="none" xmlns="http://www.w3.org/2000/svg">
<path d="M13.9998 4.99989C13.4998 5.49989 12.4968 5.41189 10.9998 4.17589M10.9998 4.17589C11.2211 3.99456 11.4508 3.78589 11.6888 3.54989C13.9948 1.26589 17.1348 1.71289 18.6058 3.54989C19.2318 4.33189 20.4588 5.83089 19.8208 9.49989M10.9998 4.17589C10.7784 3.99456 10.5488 3.78589 10.3108 3.54989C8.00478 1.26589 4.86478 1.71289 3.39378 3.54989C2.37778 4.81989 -0.22222 7.97989 6.14178 19.2399C6.40578 19.7059 6.93078 19.9999 7.49578 19.9999C8.39778 19.9999 9.10278 19.2799 9.13178 18.4399C9.17778 17.1369 9.42978 15.6849 10.1328 14.9999M15.9998 16.9999L16.6838 17.6839C16.8308 17.8309 16.9048 17.9049 16.9938 17.8999C17.0838 17.8949 17.1488 17.8139 17.2788 17.6509L18.9998 15.4999M12.9998 15.4539V15.8399C12.9998 17.0419 12.9998 17.6429 13.1478 18.1929C13.3327 18.8751 13.6807 19.5021 14.1618 20.0199C14.5518 20.4419 15.0678 20.7699 16.0988 21.4269C16.5598 21.7209 16.7908 21.8679 17.0368 21.9369C17.3398 22.0209 17.6608 22.0209 17.9638 21.9369C18.2088 21.8679 18.4398 21.7209 18.9008 21.4269C19.9318 20.7699 20.4478 20.4419 20.8378 20.0199C21.3189 19.5021 21.6669 18.8751 21.8518 18.1929C21.9998 17.6429 21.9998 17.0429 21.9998 15.8399V15.4539C21.9998 14.7059 21.9998 14.3319 21.8578 14.0159C21.7687 13.8208 21.6435 13.6444 21.4888 13.4959C21.2358 13.2559 20.8768 13.1239 20.1588 12.8609L18.6848 12.3209C18.0988 12.1069 17.8058 11.9999 17.4998 11.9999C17.1938 11.9999 16.9008 12.1069 16.3148 12.3219L14.8408 12.8619C14.1228 13.1239 13.7638 13.2549 13.5108 13.4959C13.3557 13.6443 13.2302 13.8208 13.1408 14.0159C12.9998 14.3319 12.9998 14.7059 12.9998 15.4539Z" stroke="#178082" stroke-width="1.5" stroke-linecap="round" stroke-linejoin="round"/>
</svg>
