<svg width="29" height="16" viewBox="0 0 29 16" fill="none" xmlns="http://www.w3.org/2000/svg">
<g clip-path="url(#clip0_112_499)">
<path d="M14.5 11.1998C16.502 11.1998 18.125 9.76712 18.125 7.9998C18.125 6.23249 16.502 4.7998 14.5 4.7998C12.498 4.7998 10.875 6.23249 10.875 7.9998C10.875 9.76712 12.498 11.1998 14.5 11.1998Z" fill="#178082"/>
<path d="M27.8015 7.13C26.3027 5.084 24.3583 3.346 22.1787 2.1035C19.7675 0.7275 17.1054 0 14.4807 0C12.0724 0 9.70421 0.6075 7.44198 1.8055C5.13501 3.027 3.04497 4.8115 1.22964 7.109C1.0247 7.36865 0.911838 7.67623 0.905384 7.99263C0.898929 8.30904 0.999177 8.62 1.19339 8.886C2.68927 10.9525 4.61448 12.693 6.76003 13.9185C9.17575 15.3 11.7756 16 14.4807 16C17.1264 16 19.7942 15.2785 22.1952 13.914C24.3736 12.6755 26.3141 10.931 27.8071 8.868C27.9946 8.60818 28.0938 8.30633 28.0928 7.99827C28.0918 7.6902 27.9907 7.38886 27.8015 7.13ZM14.5 12.8C13.4245 12.8 12.3732 12.5185 11.4791 11.9911C10.5849 11.4636 9.88793 10.714 9.47638 9.83688C9.06482 8.9598 8.95714 7.99468 9.16695 7.06357C9.37676 6.13246 9.89463 5.27718 10.6551 4.60589C11.4155 3.9346 12.3844 3.47744 13.4392 3.29223C14.4939 3.10702 15.5872 3.20208 16.5808 3.56538C17.5744 3.92868 18.4236 4.54391 19.0211 5.33326C19.6186 6.12262 19.9375 7.05065 19.9375 8C19.9358 9.27259 19.3624 10.4926 18.343 11.3925C17.3237 12.2924 15.9416 12.7985 14.5 12.8Z" fill="#178082"/>
</g>
<defs>
<clipPath id="clip0_112_499">
<rect width="29" height="16" fill="white"/>
</clipPath>
</defs>
</svg>
