<svg width="17" height="17" viewBox="0 0 17 17" fill="none" xmlns="http://www.w3.org/2000/svg">
<path d="M0.342203 15.277L4.84712 10.8429C4.00649 9.72383 3.5527 8.36167 3.55423 6.96202C3.55423 3.3869 6.46286 0.478271 10.038 0.478271C13.6131 0.478271 16.5217 3.3869 16.5217 6.96202C16.5217 10.5371 13.6131 13.4458 10.038 13.4458C8.63833 13.4473 7.27617 12.9935 6.15708 12.1529L1.65216 16.587C1.47542 16.745 1.24489 16.8293 1.00792 16.8227C0.770944 16.816 0.545499 16.7189 0.377867 16.5513C0.210234 16.3837 0.113134 16.1582 0.106503 15.9213C0.0998707 15.6843 0.18421 15.4538 0.342203 15.277ZM14.6692 6.96202C14.6692 6.04605 14.3976 5.15064 13.8887 4.38904C13.3798 3.62743 12.6565 3.03383 11.8103 2.6833C10.964 2.33278 10.0328 2.24106 9.13447 2.41976C8.23609 2.59846 7.41088 3.03954 6.76319 3.68723C6.1155 4.33493 5.67441 5.16014 5.49572 6.05851C5.31702 6.95688 5.40873 7.88807 5.75926 8.73432C6.10979 9.58057 6.70339 10.3039 7.46499 10.8128C8.2266 11.3217 9.122 11.5933 10.038 11.5933C11.2658 11.5918 12.4429 11.1034 13.3111 10.2352C14.1793 9.36698 14.6678 8.18985 14.6692 6.96202Z" fill="#9CA8BA"/>
</svg>
