<svg width="12" height="16" viewBox="0 0 12 16" fill="none" xmlns="http://www.w3.org/2000/svg">
<path d="M10.5 2H8C8 0.896875 7.10312 0 6 0C4.89688 0 4 0.896875 4 2H1.5C0.671875 2 0 2.67188 0 3.5V14.5C0 15.3281 0.671875 16 1.5 16H10.5C11.3281 16 12 15.3281 12 14.5V3.5C12 2.67188 11.3281 2 10.5 2ZM6 1.25C6.41563 1.25 6.75 1.58437 6.75 2C6.75 2.41563 6.41563 2.75 6 2.75C5.58437 2.75 5.25 2.41563 5.25 2C5.25 1.58437 5.58437 1.25 6 1.25ZM9 10.75C9 10.8875 8.8875 11 8.75 11H7V12.75C7 12.8875 6.8875 13 6.75 13H5.25C5.1125 13 5 12.8875 5 12.75V11H3.25C3.1125 11 3 10.8875 3 10.75V9.25C3 9.1125 3.1125 9 3.25 9H5V7.25C5 7.1125 5.1125 7 5.25 7H6.75C6.8875 7 7 7.1125 7 7.25V9H8.75C8.8875 9 9 9.1125 9 9.25V10.75ZM9 4.75C9 4.8875 8.8875 5 8.75 5H3.25C3.1125 5 3 4.8875 3 4.75V4.25C3 4.1125 3.1125 4 3.25 4H8.75C8.8875 4 9 4.1125 9 4.25V4.75Z" fill="#9CA8BA"/>
</svg>
