<svg width="28" height="21" viewBox="0 0 28 21" fill="none" xmlns="http://www.w3.org/2000/svg">
<path d="M0 10.5C0 9.5335 0.783502 8.75 1.75 8.75H19.25C20.2165 8.75 21 9.5335 21 10.5C21 11.4665 20.2165 12.25 19.25 12.25H1.75C0.783501 12.25 0 11.4665 0 10.5ZM0 1.75C0 0.783502 0.783502 0 1.75 0H26.25C27.2165 0 28 0.783502 28 1.75C28 2.7165 27.2165 3.5 26.25 3.5H1.75C0.783502 3.5 0 2.7165 0 1.75ZM0 19.25C0 20.2165 0.783502 21 1.75 21H10.9113C11.8777 21 12.6612 20.2165 12.6612 19.25C12.6612 18.2835 11.8777 17.5 10.9112 17.5H1.75C0.783501 17.5 0 18.2835 0 19.25Z" fill="#9CA8BA"/>
</svg>
