<svg width="24" height="24" viewBox="0 0 24 24" fill="none" xmlns="http://www.w3.org/2000/svg">
    <path d="M12 10.5C10.9391 10.5 9.92172 10.1049 9.17157 9.40165C8.42143 8.69839 8 7.74456 8 6.75C8 5.75544 8.42143 4.80161 9.17157 4.09835C9.92172 3.39509 10.9391 3 12 3C13.0609 3 14.0783 3.39509 14.8284 4.09835C15.5786 4.80161 16 5.75544 16 6.75C16 7.74456 15.5786 8.69839 14.8284 9.40165C14.0783 10.1049 13.0609 10.5 12 10.5Z"/>
    <path d="M21.6 18C21.152 18 20.8 17.6333 20.8 17.1667C20.8 16.7 21.152 16.3333 21.6 16.3333C22.048 16.3333 22.4 15.9667 22.4 15.5C22.4 14.3949 21.9786 13.3351 21.2284 12.5537C20.4783 11.7723 19.4609 11.3333 18.4 11.3333H16.8C16.352 11.3333 16 10.9667 16 10.5C16 10.0333 16.352 9.66667 16.8 9.66667C18.128 9.66667 19.2 8.55 19.2 7.16667C19.2 5.78333 18.128 4.66667 16.8 4.66667C16.352 4.66667 16 4.3 16 3.83333C16 3.36667 16.352 3 16.8 3C17.8609 3 18.8783 3.43899 19.6284 4.22039C20.3786 5.00179 20.8 6.0616 20.8 7.16667C20.8 8.2 20.448 9.13333 19.84 9.86667C22.224 10.5333 24 12.8 24 15.5C24 16.8833 22.928 18 21.6 18ZM2.4 18C1.072 18 0 16.8833 0 15.5C0 12.8 1.76 10.5333 4.16 9.86667C3.568 9.13333 3.2 8.2 3.2 7.16667C3.2 6.0616 3.62143 5.00179 4.37157 4.22039C5.12172 3.43899 6.13913 3 7.2 3C7.648 3 8 3.36667 8 3.83333C8 4.3 7.648 4.66667 7.2 4.66667C5.872 4.66667 4.8 5.78333 4.8 7.16667C4.8 8.55 5.872 9.66667 7.2 9.66667C7.648 9.66667 8 10.0333 8 10.5C8 10.9667 7.648 11.3333 7.2 11.3333H5.6C4.53913 11.3333 3.52172 11.7723 2.77157 12.5537C2.02143 13.3351 1.6 14.3949 1.6 15.5C1.6 15.9667 1.952 16.3333 2.4 16.3333C2.848 16.3333 3.2 16.7 3.2 17.1667C3.2 17.6333 2.848 18 2.4 18ZM16.8 23H7.2C5.872 23 4.8 21.8833 4.8 20.5V18.8333C4.8 15.6167 7.312 13 10.4 13H13.6C16.688 13 19.2 15.6167 19.2 18.8333V20.5C19.2 21.8833 18.128 23 16.8 23Z"/>
</svg>
