<svg viewBox="0 0 204 206" fill="none" xmlns="http://www.w3.org/2000/svg">
<path d="M11.3333 0H158.667L200.679 42.3216C202.805 44.4621 203.999 47.3655 204 50.3932V194.083C204 197.111 202.806 200.015 200.681 202.156C198.555 204.297 195.672 205.5 192.667 205.5H11.3333C8.32755 205.5 5.44487 204.297 3.31946 202.156C1.19404 200.015 0 197.111 0 194.083V11.4167C0 8.38878 1.19404 5.4849 3.31946 3.34386C5.44487 1.20282 8.32755 0 11.3333 0ZM102 171.25C111.017 171.25 119.665 167.642 126.042 161.218C132.418 154.795 136 146.084 136 137C136 127.916 132.418 119.205 126.042 112.782C119.665 106.358 111.017 102.75 102 102.75C92.9826 102.75 84.3346 106.358 77.9584 112.782C71.5821 119.205 68 127.916 68 137C68 146.084 71.5821 154.795 77.9584 161.218C84.3346 167.642 92.9826 171.25 102 171.25ZM22.6667 22.8333V68.5H136V22.8333H22.6667Z" fill="#4CA6A8"/>
</svg>
