<svg viewBox="0 0 26 26" fill="none" xmlns="http://www.w3.org/2000/svg">
<g clip-path="url(#clip0_97_179)">
<path d="M17.5394 0.183347C13.335 0.183347 9.92669 2.06289 9.92669 4.38478C9.92669 6.70668 13.336 8.58719 17.5394 8.58719C21.7437 8.58719 25.152 6.70668 25.152 4.38478C25.152 2.06289 21.7427 0.183347 17.5394 0.183347ZM25.152 5.63294C25.1501 7.95483 21.7437 9.83535 17.5394 9.83535C13.3467 9.83535 9.94618 7.9753 9.92669 5.66412V7.30786C9.92669 8.29976 10.562 9.20786 11.6026 9.92694C12.6549 10.2134 13.5922 10.6109 14.3727 11.1137C15.3402 11.3592 16.4042 11.5093 17.5394 11.5093C21.7437 11.5093 25.152 9.62976 25.152 7.30786V5.63294ZM25.152 8.55601C25.152 10.8779 21.7437 12.7584 17.5394 12.7584C17.0278 12.7584 16.5309 12.7204 16.0476 12.6668C16.429 13.1804 16.6891 13.7737 16.8086 14.4022C17.0512 14.4158 17.2909 14.4324 17.5394 14.4324C21.7437 14.4324 25.152 12.5528 25.152 10.2309V8.55601ZM7.79577 10.9003C3.59141 10.9003 0.183105 12.7808 0.183105 15.1027C0.183105 17.4246 3.59239 19.3051 7.79577 19.3051C12.0001 19.3051 15.4084 17.4246 15.4084 15.1027C15.4084 12.7808 11.9992 10.9003 7.79577 10.9003ZM25.152 11.4791C25.1501 13.801 21.7437 15.6815 17.5394 15.6815C17.2948 15.6815 17.0473 15.664 16.8086 15.6503C16.7979 15.7234 16.792 15.8208 16.7784 15.8939C16.8271 16.041 16.869 16.1862 16.869 16.3519V17.3262C17.0902 17.3369 17.3123 17.3554 17.5394 17.3554C21.7437 17.3554 25.152 15.4759 25.152 13.154V11.4791ZM25.152 14.4022C25.1501 16.7241 21.7437 18.6046 17.5394 18.6046C17.2948 18.6046 17.0473 18.587 16.8086 18.5734C16.7979 18.6465 16.792 18.7439 16.7784 18.817C16.8271 18.9631 16.869 19.1093 16.869 19.2749V20.2493C17.0902 20.26 17.3123 20.2785 17.5394 20.2785C21.7437 20.2785 25.152 18.399 25.152 16.0771V14.4022ZM15.4084 16.3509C15.4065 18.6728 12.0001 20.5533 7.79577 20.5533C3.60311 20.5533 0.202593 18.6932 0.183105 16.3811V18.0258C0.183105 20.3477 3.59044 22.2282 7.79577 22.2282C12.0011 22.2282 15.4084 20.3477 15.4084 18.0258V16.3509ZM15.4084 19.274C15.4065 21.5959 12.0001 23.4764 7.79577 23.4764C3.60311 23.4764 0.202593 21.6163 0.183105 19.3042V20.9489C0.183105 23.2708 3.59044 25.1513 7.79577 25.1513C12.0011 25.1513 15.4084 23.2708 15.4084 20.9489V19.274Z" fill="#F08F02"/>
</g>
<defs>
<clipPath id="clip0_97_179">
<rect width="25.3333" height="25.3333" fill="white"/>
</clipPath>
</defs>
</svg>
